<svg width="137" height="99" viewBox="0 0 137 99" fill="none" xmlns="http://www.w3.org/2000/svg">
<g id="Group 549">
<g id="Group 546">
<path id="Vector" d="M38.8594 38.8636L44.1704 40.1032L61.5907 41.5094C66.8876 39.8885 75.2249 37.8907 75.2806 36.9434C75.3363 35.9961 75.5449 33.0849 75.2806 31.9285L88.4641 23.2722L63.0071 2L25.7209 30.3659L38.8594 38.8636Z" fill="#366746" stroke="#255033" stroke-width="2.4"/>
<path id="Vector_2" d="M61.6338 23.7217C68.39 23.3887 73.5536 28.7915 75.526 32.0999C75.526 42.721 69.5232 51.5632 66.5219 54.6567C57.6461 50.7468 41.0209 38.0551 45.0404 33.2601C50.4427 26.8153 54.8776 24.0545 61.6338 23.7217Z" fill="#3A8152" stroke="#255033" stroke-width="2.4"/>
<path id="Vector_3" d="M62.9569 23.7812L68.6169 35.8974" stroke="#255033" stroke-opacity="0.5" stroke-width="2.4"/>
<path id="Vector_4" d="M40.3971 56.2814C40.1545 64.5468 36.8084 83.333 36.8084 83.333C38.264 94.0726 59.6449 96.1262 69.4406 96.7239C79.2193 97.3215 90.9158 85.3493 92.2373 83.4556C93.559 81.5534 89.7592 71.1707 88.9394 67.7535C88.1196 64.3364 90.1858 60.0354 90.1858 60.0354C90.1858 60.0354 94.151 54.6486 95.9159 49.6323C97.6811 44.616 94.8286 42.3351 95.2049 41.7205C95.5815 41.1063 95.1549 39.4565 94.7617 39.0271C94.2513 39.1031 94.0841 38.4548 94.0841 38.4548C94.0841 38.4548 95.9828 38.076 93.4231 34.6254C89.9936 32.883 87.367 35.1893 84.1128 35.8458C80.8589 36.5022 79.8551 38.8757 79.1606 38.4885C78.4749 38.1098 77.0863 37.8658 77.0863 37.8658C76.6346 36.7547 72.8954 34.3474 72.8954 34.3474C66.4966 32.8064 70.8432 37.0467 67.1973 36.116C58.5896 33.919 51.7537 39.6405 51.695 38.8242C51.6365 37.9992 49.4931 36.9185 49.4931 36.9185C48.3555 38.8206 46.6726 37.8405 46.6726 37.8405C46.6726 37.8405 34.6635 31.1063 31.6772 32.8064C28.6908 34.5065 34.5798 34.3896 35.4806 41.833C38.6833 53.0661 40.8737 45.0367 40.3971 56.2814Z" fill="white" stroke="#E63946" stroke-width="2.4" stroke-miterlimit="10"/>
<path id="Vector_5" d="M58.4645 36.5421C57.1634 36.5421 52.229 39.6654 52.1705 38.8488C52.112 38.0241 49.6683 37.545 49.6683 37.545C48.5307 39.4472 44.7639 36.9434 44.7639 36.9434C44.7639 36.9434 34.5384 31.3316 31.5521 33.0317C28.5658 34.7319 35.1554 35.1629 35.5557 42.0583C38.9587 53.2914 41.1498 44.7832 40.5559 56.4067C41.5514 63.8217 36.9672 83.458 36.9672 83.458C38.431 94.1976 59.8038 96.2514 69.591 96.8491C79.3698 97.4465 91.1909 85.4745 92.5126 83.5805C93.8343 81.6784 89.9265 71.2959 89.1067 67.8787C88.2869 64.4613 90.3363 60.1604 90.3363 60.1604C90.3363 60.1604 94.293 54.7738 96.0664 49.7575C97.8315 44.741 94.979 42.4601 95.3553 41.8458C95.7319 41.2312 95.3053 39.5815 94.9121 39.1524C94.4018 39.2281 94.2345 38.58 94.2345 38.58C94.2345 38.58 96.1333 38.2013 93.5736 34.7504C90.144 33.008 87.5174 35.3143 84.2633 35.9707C81.0094 36.6272 80.0055 39.0007 79.3111 38.6135C78.6253 38.2348 77.2367 37.9908 77.2367 37.9908C76.785 36.8799 73.0458 34.4726 73.0458 34.4726" stroke="#E63946" stroke-width="0.6" stroke-miterlimit="10"/>
<path id="Vector_6" d="M61.7619 48.3191C61.7619 48.3191 61.1011 43.3954 64.9238 42.7305C66.53 42.7809 67.8098 43.6394 69.4578 43.6816C71.3147 43.2437 69.3825 45.9625 67.5757 46.3243C66.6137 46.7535 66.279 48.4539 62.6319 47.6795C61.9125 47.7552 61.7619 48.3191 61.7619 48.3191Z" fill="#E63946"/>
<path id="Vector_7" d="M86.832 35.1713C86.832 35.1713 82.181 40.962 88.3209 40.6336L89.5673 40.3139C89.5673 40.3139 90.1361 42.7043 93.2981 41.4249C93.2981 41.4249 94.6783 42.233 95.3559 41.8458C96.0335 41.4586 94.9124 39.1524 94.9124 39.1524L94.2349 38.58C94.2349 38.58 96.368 38.3949 93.5741 34.7504C90.9475 33.2101 86.832 35.1713 86.832 35.1713Z" fill="#E63946"/>
<path id="Vector_8" d="M65.0823 43.7642C65.0823 43.7642 62.8741 44.1429 63.3758 46.4405C64.3797 48.0818 66.8056 46.3397 66.8056 46.3397C66.8056 46.3397 67.4247 45.6326 66.8056 44.7994C66.1865 43.966 65.3919 43.6798 65.0823 43.7642Z" fill="white"/>
<path id="Vector_9" opacity="0.44" d="M36.9689 83.4601C36.9689 83.4601 37.3621 89.8906 46.8397 92.6513C56.3172 95.4119 41.1264 76.8109 43.6108 67.0812C43.6108 67.0812 45.744 74.4459 47.7348 73.3769C49.7257 72.3079 45.8443 57.0149 48.128 57.1494C50.4115 57.2842 49.6504 60.4236 53.8747 60.8443C58.099 61.2652 61.0185 55.4577 59.3873 47.1503C57.7561 38.843 60.0899 35.9982 65.1509 36.6209C70.2116 37.2439 72.5956 40.5938 75.0216 40.1393C77.4475 39.6846 64.2139 33.2375 73.6914 34.9039C73.6914 34.9039 72.3786 33.736 70.2768 34.2373C70.2768 34.2373 68.7755 34.2373 68.7755 36.3437C68.7755 36.3437 63.4706 35.5414 62.8702 35.9424C61.769 35.4411 61.2687 35.7418 58.3661 36.3437C56.1743 37.7239 52.1722 39.2522 52.1722 39.2522C52.1722 39.2522 50.857 37.1965 49.9704 37.1459C49.0837 37.0955 48.9693 40.0545 44.6655 36.6209C38.2599 34.037 31.8541 30.5265 31.1534 34.037C31.1534 34.037 33.5556 35.6363 35.6575 41.9602C35.6575 45.0694 36.4582 44.6681 38.36 48.1785C41.1625 50.0842 40.683 53.1599 40.683 53.1599C40.683 53.1599 38.6002 82.0039 36.9689 83.4601Z" fill="#E63946"/>
<path id="Vector_10" d="M65.1915 44.3044C65.1915 44.3044 63.7944 44.2791 63.9282 45.4491C64.062 46.6191 66.7639 45.8363 66.3291 45.045C65.8857 44.2456 65.3503 44.296 65.1915 44.3044Z" fill="#E63946"/>
<path id="Vector_11" d="M74.3339 62.8043C74.3339 62.8043 74.8943 60.6413 78.2403 59.1936C81.5864 57.7459 95.1963 49.6405 93.2976 41.4258C93.2976 41.4258 94.1255 46.964 96.6268 47.1407C96.6268 47.1407 96.8946 49.9687 94.0252 47.5617C94.0252 47.5617 88.0944 56.2981 82.5987 58.032C77.1027 59.7744 79.4198 62.6696 74.3339 62.8043Z" fill="#E63946"/>
<path id="Vector_12" opacity="0.16" d="M93.476 55.0078C93.476 55.0078 75.1649 68.2391 75.1649 71.8414C73.3665 78.8693 76.997 93.5565 76.1521 95.2567C75.3071 96.9568 90.3723 88.1221 93.0157 82.6765C93.0157 82.6765 92.5559 80.6369 89.1095 67.8688C89.1095 67.8688 88.8501 63.2141 90.3391 60.1504C91.8283 57.0954 93.3088 56.22 93.476 55.0078Z" fill="#E63946"/>
<path id="Vector_13" d="M42.8168 47.8665C42.8168 47.8665 41.4349 45.5061 39.9862 44.3879C38.5375 43.2698 35.7768 38.1977 34.5147 36.0415C33.2527 33.8852 39.9399 41.7142 42.2734 45.2952C42.2734 45.2952 41.5018 45.4621 42.8168 47.8665Z" fill="#E63946"/>
<path id="Vector_14" d="M40.5746 56.4067C40.332 64.6718 36.9859 83.458 36.9859 83.458C38.4415 94.1979 59.8224 96.2514 69.6181 96.8491C79.3968 97.4465 91.0933 85.4745 92.4148 83.5805C93.7365 81.6784 89.9367 71.2959 89.1169 67.8787C88.2971 64.4613 90.3633 60.1606 90.3633 60.1606C90.3633 60.1606 94.3285 54.7738 96.0934 49.7575C97.8584 44.741 95.0061 42.4601 95.3824 41.8458C95.7587 41.2313 95.3321 39.5817 94.9392 39.1524C94.4288 39.2281 94.2616 38.58 94.2616 38.58C94.2616 38.58 96.1603 38.2013 93.6006 34.7504C90.1711 33.008 87.5445 35.3143 84.2903 35.9708C81.0364 36.6272 80.0326 39.001 79.3381 38.6138C78.6524 38.235 77.2637 37.9908 77.2637 37.9908C76.8119 36.8799 73.0729 34.4726 73.0729 34.4726C66.6741 32.9314 71.0207 37.1719 67.3748 36.2412C58.7671 34.0442 51.9312 39.7657 51.8725 38.9492C51.814 38.1244 49.6706 37.0437 49.6706 37.0437C48.533 38.9459 46.8501 37.9655 46.8501 37.9655C46.8501 37.9655 34.841 31.2313 31.8547 32.9314C28.8683 34.6318 34.7572 34.5148 35.6581 41.958C38.8609 53.1911 41.0512 45.1619 40.5746 56.4067Z" stroke="#E63946" stroke-width="2.4" stroke-miterlimit="10"/>
<g id="Group" filter="url(#filter0_d_7933_32200)">
<path id="Vector_15" d="M43.4813 15.9984C43.0332 13.9494 44.9721 14.0481 45.8146 14.4414L44.3142 15.5811L44.7308 20.5886L45.5351 21.9124C45.8567 22.4418 45.2863 23.0922 44.9607 23.3512L45.1476 25.596C45.7075 26.0708 46.2244 26.0277 46.1959 29.8552C46.1732 32.9173 47.6806 46.3068 48.437 52.6189C48.9544 58.8352 51.9748 63.1615 53.2481 64.5619C53.3775 64.725 53.3515 64.9706 52.2143 64.6483C50.7927 64.2454 49.2846 58.6336 49.3709 59.6698C49.4397 60.4985 50.2613 63.4205 50.6634 64.7779C50.1177 65.1712 48.6388 65.8858 47.0879 65.5982C45.1492 65.2385 45.1064 66.8069 45.0201 65.771C44.9511 64.9422 44.7041 64.754 44.5893 64.7636C43.3831 64.8644 43.3686 64.6919 43.6846 64.3176C43.9374 64.0183 44.2875 63.224 44.4311 62.8643C43.8109 63.7507 43.1772 63.7805 42.9377 63.6846C44.0176 63.3162 44.8044 61.0945 45.0629 60.0295C45.2063 55.497 43.4247 31.9993 43.166 28.8912C42.959 26.4048 43.8263 25.7064 44.2859 25.6679L44.099 23.4234C43.8693 23.4424 43.3583 23.2764 43.1513 22.4592C42.9445 21.6419 43.5438 20.9196 43.8693 20.6606L43.4813 15.9984Z" fill="#FF9F1C"/>
</g>
</g>
<g id="Group 545">
<g id="Group_2">
<path id="Vector_16" fill-rule="evenodd" clip-rule="evenodd" d="M115.265 22.2785C115.691 27.5938 111.728 32.2482 106.413 32.6747C101.098 33.1013 96.4432 29.1384 96.0167 23.8231C95.5901 18.5078 99.553 13.8535 104.868 13.4269C110.184 13.0004 114.838 16.9632 115.265 22.2785Z" fill="#4F9566"/>
<path id="Vector_17" fill-rule="evenodd" clip-rule="evenodd" d="M105.118 16.5541C105.31 16.5388 105.5 16.6001 105.646 16.7246C105.792 16.8491 105.883 17.0266 105.898 17.218L105.923 17.5231C107.514 17.6782 108.927 18.7513 109.056 20.3547C109.071 20.5461 109.01 20.7358 108.885 20.882C108.761 21.0283 108.583 21.119 108.392 21.1344C108.2 21.1498 108.011 21.0884 107.864 20.9639C107.718 20.8394 107.627 20.662 107.612 20.4705C107.56 19.818 106.961 19.1696 106.041 18.9955L106.309 22.335C107.9 22.4902 109.313 23.5633 109.442 25.1666C109.571 26.77 108.347 28.0547 106.801 28.4616L106.825 28.7667C106.84 28.9581 106.779 29.1478 106.655 29.2941C106.53 29.4403 106.353 29.5311 106.161 29.5464C105.97 29.5618 105.78 29.5005 105.634 29.376C105.488 29.2515 105.397 29.074 105.381 28.8826L105.357 28.5775C103.766 28.4223 102.353 27.3492 102.224 25.7459C102.209 25.5544 102.27 25.3648 102.394 25.2185C102.519 25.0723 102.696 24.9815 102.888 24.9662C103.079 24.9508 103.269 25.0121 103.415 25.1366C103.561 25.2611 103.652 25.4386 103.667 25.63C103.72 26.2825 104.318 26.9309 105.239 27.1041L104.971 23.7655C103.38 23.6104 101.966 22.5373 101.838 20.9339C101.709 19.3306 102.933 18.0458 104.479 17.6389L104.455 17.3339C104.439 17.1424 104.501 16.9527 104.625 16.8065C104.75 16.6603 104.927 16.5695 105.118 16.5541ZM104.597 19.1114C103.716 19.43 103.229 20.1656 103.281 20.8181C103.334 21.4706 103.932 22.119 104.853 22.2921L104.597 19.1114ZM107.998 25.2825C107.946 24.63 107.348 23.9816 106.427 23.8085L106.682 26.9882C107.563 26.6705 108.051 25.935 107.998 25.2825Z" fill="white"/>
</g>
<g id="Group_3">
<path id="Vector_18" fill-rule="evenodd" clip-rule="evenodd" d="M115.299 41.6761C116.116 44.9767 114.103 48.3149 110.803 49.1323C107.502 49.9498 104.164 47.9369 103.346 44.6363C102.529 41.3357 104.542 37.9975 107.842 37.18C111.143 36.3626 114.481 38.3754 115.299 41.6761Z" fill="#4F9566"/>
<path id="Vector_19" fill-rule="evenodd" clip-rule="evenodd" d="M108.325 39.1207C108.444 39.0913 108.57 39.1103 108.674 39.1735C108.779 39.2368 108.855 39.3391 108.884 39.4579L108.931 39.6474C109.949 39.5806 110.949 40.1099 111.195 41.1056C111.225 41.2244 111.206 41.3501 111.142 41.455C111.079 41.5599 110.977 41.6353 110.858 41.6648C110.739 41.6942 110.613 41.6752 110.509 41.612C110.404 41.5488 110.328 41.4464 110.299 41.3276C110.198 40.9224 109.755 40.5762 109.158 40.5617L109.671 42.6355C110.689 42.5687 111.689 43.098 111.935 44.0936C112.182 45.0893 111.544 46.0241 110.613 46.4399L110.66 46.6293C110.69 46.7482 110.671 46.8739 110.608 46.9788C110.544 47.0836 110.442 47.1591 110.323 47.1885C110.204 47.218 110.079 47.199 109.974 47.1358C109.869 47.0725 109.793 46.9702 109.764 46.8513L109.717 46.6619C108.7 46.7287 107.7 46.1994 107.453 45.2037C107.424 45.0849 107.443 44.9592 107.506 44.8543C107.569 44.7494 107.671 44.6739 107.79 44.6445C107.909 44.6151 108.035 44.6341 108.14 44.6973C108.245 44.7605 108.32 44.8628 108.35 44.9817C108.45 45.3869 108.893 45.7331 109.49 45.747L108.977 43.6738C107.96 43.7406 106.96 43.2113 106.713 42.2156C106.466 41.22 107.104 40.2852 108.035 39.8694L107.988 39.68C107.958 39.5611 107.977 39.4354 108.041 39.3305C108.104 39.2256 108.206 39.1502 108.325 39.1207ZM108.261 40.7838C107.74 41.0753 107.509 41.5884 107.609 41.9936C107.71 42.3988 108.153 42.745 108.75 42.7589L108.261 40.7838ZM111.039 44.3157C110.938 43.9105 110.495 43.5643 109.898 43.5504L110.387 45.5249C110.909 45.234 111.139 44.7208 111.039 44.3157Z" fill="white"/>
</g>
<g id="Group_4">
<path id="Vector_20" fill-rule="evenodd" clip-rule="evenodd" d="M134.656 33.6981C133.363 38.3384 128.553 41.0516 123.913 39.7585C119.273 38.4653 116.559 33.6555 117.853 29.0151C119.146 24.3748 123.955 21.6616 128.596 22.9547C133.236 24.2479 135.949 29.0577 134.656 33.6981Z" fill="#4F9566"/>
<path id="Vector_21" fill-rule="evenodd" clip-rule="evenodd" d="M127.832 25.6866C127.999 25.7332 128.141 25.8443 128.226 25.9954C128.311 26.1465 128.333 26.3253 128.286 26.4924L128.212 26.7587C129.513 27.3857 130.378 28.7357 129.988 30.1355C129.941 30.3026 129.83 30.4444 129.679 30.5296C129.528 30.6149 129.349 30.6366 129.182 30.59C129.015 30.5434 128.873 30.4324 128.788 30.2813C128.702 30.1302 128.681 29.9514 128.727 29.7843C128.886 29.2146 128.581 28.4785 127.854 28.0442L127.042 30.9597C128.343 31.5867 129.207 32.9367 128.817 34.3364C128.427 35.7362 126.989 36.4446 125.551 36.3083L125.477 36.5746C125.43 36.7417 125.319 36.8835 125.168 36.9688C125.017 37.054 124.838 37.0757 124.671 37.0291C124.504 36.9826 124.362 36.8715 124.277 36.7204C124.192 36.5693 124.17 36.3905 124.216 36.2234L124.291 35.9571C122.99 35.3301 122.125 33.9801 122.515 32.5803C122.562 32.4132 122.673 32.2714 122.824 32.1862C122.975 32.1009 123.154 32.0792 123.321 32.1258C123.488 32.1724 123.63 32.2834 123.715 32.4345C123.801 32.5856 123.822 32.7644 123.776 32.9315C123.617 33.5012 123.922 34.2373 124.649 34.6707L125.461 31.7561C124.16 31.1291 123.296 29.7791 123.686 28.3794C124.076 26.9796 125.514 26.2712 126.952 26.4075L127.026 26.1412C127.073 25.974 127.184 25.8323 127.335 25.747C127.486 25.6618 127.665 25.6401 127.832 25.6866ZM126.594 27.693C125.747 27.6889 125.105 28.161 124.946 28.7306C124.788 29.3002 125.093 30.0364 125.82 30.4698L126.594 27.693ZM127.557 33.9852C127.715 33.4155 127.41 32.6794 126.683 32.246L125.909 35.022C126.756 35.0269 127.398 34.5548 127.557 33.9852Z" fill="white"/>
</g>
</g>
<g id="Group 547">
<g id="Group_5">
<path id="Vector_22" fill-rule="evenodd" clip-rule="evenodd" d="M25.5129 49.0593C25.8563 53.3387 22.6658 57.0859 18.3865 57.4293C14.1071 57.7728 10.3599 54.5822 10.0164 50.3029C9.67303 46.0236 12.8635 42.2763 17.1429 41.9329C21.4222 41.5895 25.1695 44.78 25.5129 49.0593Z" fill="#4F9566"/>
<path id="Vector_23" fill-rule="evenodd" clip-rule="evenodd" d="M17.3437 44.4504C17.4978 44.4381 17.6505 44.4874 17.7683 44.5877C17.886 44.6879 17.9591 44.8308 17.9714 44.9849L17.9912 45.2305C19.2723 45.3554 20.4099 46.2194 20.5135 47.5102C20.5259 47.6644 20.4765 47.8171 20.3763 47.9348C20.2761 48.0525 20.1332 48.1256 19.9791 48.138C19.8249 48.1504 19.6722 48.101 19.5545 48.0008C19.4368 47.9005 19.3637 47.7576 19.3513 47.6035C19.3091 47.0782 18.8274 46.5562 18.0863 46.416L18.302 49.1046C19.5832 49.2295 20.7208 50.0935 20.8244 51.3844C20.928 52.6752 19.9427 53.7096 18.6979 54.0372L18.7176 54.2828C18.73 54.4369 18.6806 54.5896 18.5804 54.7073C18.4801 54.8251 18.3372 54.8982 18.1831 54.9105C18.029 54.9229 17.8763 54.8735 17.7585 54.7733C17.6408 54.6731 17.5677 54.5302 17.5554 54.376L17.5356 54.1304C16.2545 54.0055 15.1169 53.1416 15.0133 51.8507C15.0009 51.6966 15.0503 51.5439 15.1505 51.4261C15.2507 51.3084 15.3936 51.2353 15.5477 51.2229C15.7019 51.2106 15.8546 51.2599 15.9723 51.3602C16.09 51.4604 16.1631 51.6033 16.1755 51.7574C16.2177 52.2828 16.6994 52.8048 17.4405 52.9442L17.2248 50.2563C15.9436 50.1314 14.806 49.2674 14.7024 47.9766C14.5988 46.6857 15.5841 45.6514 16.8289 45.3238L16.8092 45.0782C16.7968 44.9241 16.8462 44.7713 16.9464 44.6536C17.0467 44.5359 17.1896 44.4628 17.3437 44.4504ZM16.9241 46.5093C16.2147 46.7658 15.8224 47.358 15.8646 47.8833C15.9068 48.4086 16.3885 48.9307 17.1296 49.0701L16.9241 46.5093ZM19.6622 51.4776C19.62 50.9523 19.1383 50.4303 18.3972 50.2909L18.6027 52.8509C19.3121 52.5951 19.7044 52.003 19.6622 51.4776Z" fill="white"/>
</g>
<g id="Group_6">
<path id="Vector_24" fill-rule="evenodd" clip-rule="evenodd" d="M27.6857 63.35C28.3438 66.0073 26.7233 68.6949 24.0659 69.353C21.4086 70.0112 18.721 68.3906 18.0629 65.7333C17.4047 63.0759 19.0253 60.3884 21.6826 59.7302C24.34 59.0721 27.0275 60.6926 27.6857 63.35Z" fill="#4F9566"/>
<path id="Vector_25" fill-rule="evenodd" clip-rule="evenodd" d="M22.0709 61.2953C22.1666 61.2716 22.2678 61.2869 22.3522 61.3378C22.4367 61.3887 22.4974 61.4711 22.5211 61.5668L22.5589 61.7193C23.3779 61.6656 24.1831 62.0917 24.3816 62.8933C24.4053 62.989 24.39 63.0902 24.3391 63.1746C24.2882 63.2591 24.2058 63.3198 24.1101 63.3435C24.0144 63.3672 23.9132 63.3519 23.8288 63.301C23.7443 63.2501 23.6836 63.1678 23.6599 63.072C23.5791 62.7458 23.2221 62.4671 22.7412 62.4555L23.1547 64.125C23.9738 64.0713 24.7789 64.4974 24.9774 65.299C25.176 66.1006 24.6628 66.8532 23.9133 67.188L23.9511 67.3405C23.9748 67.4362 23.9595 67.5374 23.9086 67.6218C23.8577 67.7063 23.7753 67.767 23.6796 67.7907C23.5839 67.8144 23.4827 67.7991 23.3983 67.7482C23.3138 67.6973 23.2531 67.6149 23.2294 67.5192L23.1916 67.3667C22.3725 67.4205 21.5674 66.9943 21.3689 66.1927C21.3452 66.097 21.3605 65.9958 21.4114 65.9114C21.4623 65.827 21.5447 65.7662 21.6404 65.7425C21.7361 65.7188 21.8373 65.7341 21.9217 65.785C22.0061 65.8359 22.0669 65.9183 22.0906 66.014C22.1714 66.3402 22.5284 66.6189 23.0092 66.6301L22.5958 64.961C21.7767 65.0148 20.9716 64.5886 20.7731 63.787C20.5745 62.9855 21.0877 62.2328 21.8372 61.8981L21.7994 61.7455C21.7757 61.6498 21.791 61.5486 21.8419 61.4642C21.8928 61.3798 21.9752 61.319 22.0709 61.2953ZM22.0195 62.6342C21.5997 62.8689 21.414 63.2821 21.4948 63.6083C21.5756 63.9345 21.9326 64.2132 22.4133 64.2244L22.0195 62.6342ZM24.2557 65.4777C24.1749 65.1515 23.8179 64.8728 23.3371 64.8617L23.7309 66.4513C24.1508 66.2171 24.3365 65.804 24.2557 65.4777Z" fill="white"/>
</g>
<g id="Group_7">
<path id="Vector_26" fill-rule="evenodd" clip-rule="evenodd" d="M15.416 65.9955C14.3749 69.7314 10.5025 71.9159 6.76657 70.8747C3.03063 69.8336 0.846197 65.9612 1.88735 62.2253C2.9285 58.4893 6.80086 56.3049 10.5368 57.3461C14.2727 58.3872 16.4572 62.2596 15.416 65.9955Z" fill="#4F9566"/>
<path id="Vector_27" fill-rule="evenodd" clip-rule="evenodd" d="M9.92286 59.5429C10.0574 59.5804 10.1716 59.6698 10.2402 59.7914C10.3088 59.9131 10.3263 60.057 10.2888 60.1916L10.229 60.406C11.2766 60.9108 11.9724 61.9977 11.6583 63.1246C11.6208 63.2592 11.5314 63.3733 11.4097 63.4419C11.2881 63.5106 11.1442 63.5281 11.0096 63.4906C10.8751 63.4531 10.7609 63.3636 10.6923 63.242C10.6237 63.1203 10.6062 62.9764 10.6437 62.8418C10.7715 62.3832 10.5255 61.7906 9.94062 61.4409L9.28648 63.7882C10.334 64.293 11.0298 65.3798 10.7158 66.5068C10.4017 67.6337 9.24405 68.2041 8.08642 68.0943L8.02666 68.3088C7.98916 68.4433 7.89975 68.5575 7.7781 68.6261C7.65644 68.6947 7.5125 68.7122 7.37795 68.6747C7.2434 68.6372 7.12926 68.5478 7.06063 68.4261C6.992 68.3045 6.97451 68.1606 7.01201 68.026L7.07177 67.8116C6.02423 67.3068 5.32844 66.2199 5.6425 65.0929C5.68 64.9584 5.76941 64.8443 5.89107 64.7756C6.01272 64.707 6.15666 64.6895 6.29121 64.727C6.42576 64.7645 6.5399 64.8539 6.60853 64.9756C6.67716 65.0972 6.69465 65.2412 6.65715 65.3757C6.52934 65.8343 6.77531 66.427 7.36038 66.776L8.01433 64.4294C6.96678 63.9246 6.271 62.8377 6.58506 61.7108C6.89912 60.5838 8.05676 60.0135 9.21439 60.1232L9.27415 59.9088C9.31165 59.7742 9.40106 59.6601 9.52271 59.5915C9.64437 59.5228 9.78831 59.5054 9.92286 59.5429ZM8.92597 61.1582C8.24457 61.1549 7.72752 61.5349 7.59971 61.9935C7.4719 62.4522 7.71787 63.0448 8.30294 63.3938L8.92597 61.1582ZM9.7011 66.224C9.82891 65.7654 9.58294 65.1727 8.99787 64.8238L8.37503 67.0587C9.05624 67.0627 9.57329 66.6826 9.7011 66.224Z" fill="white"/>
</g>
</g>
</g>
<defs>
<filter id="filter0_d_7933_32200" x="42.9377" y="14.2148" width="15.1635" height="56.7141" filterUnits="userSpaceOnUse" color-interpolation-filters="sRGB">
<feFlood flood-opacity="0" result="BackgroundImageFix"/>
<feColorMatrix in="SourceAlpha" type="matrix" values="0 0 0 0 0 0 0 0 0 0 0 0 0 0 0 0 0 0 127 0" result="hardAlpha"/>
<feOffset dx="2.4" dy="2.4"/>
<feGaussianBlur stdDeviation="1.2"/>
<feColorMatrix type="matrix" values="0 0 0 0 0 0 0 0 0 0 0 0 0 0 0 0 0 0 0.25 0"/>
<feBlend mode="normal" in2="BackgroundImageFix" result="effect1_dropShadow_7933_32200"/>
<feBlend mode="normal" in="SourceGraphic" in2="effect1_dropShadow_7933_32200" result="shape"/>
</filter>
</defs>
</svg>
