<svg width="310" height="410" viewBox="0 0 310 410" fill="none" xmlns="http://www.w3.org/2000/svg">
<path d="M60.4638 160.501L83.1708 165.79L157.651 171.79C180.298 164.874 215.944 156.35 216.182 152.308C216.42 148.266 217.312 135.845 216.182 130.911L272.548 93.977L163.707 3.21484L4.29053 124.244L60.4638 160.501Z" fill="#254065" stroke="#1D3557" stroke-width="4"/>
<path d="M157.836 95.8918C186.722 94.4708 208.799 117.523 217.232 131.639C217.232 176.956 191.567 214.683 178.735 227.882C140.787 211.2 69.7062 157.048 86.8912 136.589C109.989 109.091 128.95 97.3118 157.836 95.8918Z" fill="#3E5A82" stroke="#1D3557" stroke-width="4"/>
<path d="M163.497 96.144L187.696 147.84" stroke="#1D3557" stroke-opacity="0.5" stroke-width="4"/>
<path d="M67.044 234.814C66.007 270.08 51.7008 350.235 51.7008 350.235C57.924 396.058 149.338 404.82 191.219 407.37C233.028 409.92 283.036 358.838 288.686 350.758C294.337 342.642 278.091 298.342 274.586 283.762C271.081 269.182 279.915 250.831 279.915 250.831C279.915 250.831 296.868 227.847 304.414 206.444C311.961 185.041 299.765 175.309 301.374 172.687C302.984 170.066 301.16 163.027 299.479 161.195C297.297 161.519 296.582 158.753 296.582 158.753C296.582 158.753 304.7 157.137 293.756 142.414C279.093 134.98 267.863 144.82 253.95 147.621C240.038 150.422 235.746 160.549 232.777 158.897C229.845 157.281 223.908 156.24 223.908 156.24C221.977 151.499 205.99 141.228 205.99 141.228C178.632 134.653 197.216 152.745 181.628 148.774C144.826 139.4 115.599 163.812 115.348 160.329C115.098 156.809 105.934 152.198 105.934 152.198C101.07 160.314 93.875 156.132 93.875 156.132C93.875 156.132 42.5302 127.399 29.7622 134.653C16.9942 141.907 42.1722 141.408 46.0236 173.167C59.717 221.095 69.082 186.836 67.044 234.814Z" fill="white" stroke="#E63946" stroke-width="4" stroke-miterlimit="10"/>
<path d="M144.29 150.596C138.727 150.596 117.63 163.922 117.38 160.438C117.13 156.919 106.682 154.875 106.682 154.875C101.818 162.991 85.7131 152.308 85.7131 152.308C85.7131 152.308 41.9944 128.364 29.2265 135.618C16.4585 142.872 44.632 144.711 46.3437 174.132C60.8931 222.06 70.2611 185.758 67.7221 235.352C71.9781 266.99 52.3787 350.772 52.3787 350.772C58.6371 396.595 150.016 405.358 191.861 407.908C233.67 410.457 284.211 359.376 289.862 351.295C295.513 343.179 278.805 298.88 275.3 284.3C271.795 269.719 280.557 251.368 280.557 251.368C280.557 251.368 297.474 228.385 305.056 206.982C312.603 185.578 300.407 175.846 302.016 173.225C303.626 170.603 301.802 163.564 300.121 161.733C297.939 162.056 297.224 159.291 297.224 159.291C297.224 159.291 305.342 157.675 294.398 142.951C279.735 135.517 268.505 145.357 254.592 148.158C240.68 150.959 236.388 161.086 233.419 159.434C230.487 157.818 224.55 156.777 224.55 156.777C222.619 152.037 206.632 141.766 206.632 141.766" stroke="#E63946" stroke-miterlimit="10"/>
<path d="M158.385 200.841C158.385 200.841 155.56 179.833 171.904 176.996C178.771 177.211 184.243 180.874 191.289 181.054C199.228 179.186 190.967 190.786 183.242 192.33C179.129 194.161 177.698 201.416 162.105 198.112C159.029 198.435 158.385 200.841 158.385 200.841Z" fill="#E63946"/>
<path d="M265.567 144.747C265.567 144.747 245.682 169.454 271.933 168.053L277.262 166.689C277.262 166.689 279.694 176.888 293.213 171.429C293.213 171.429 299.114 174.877 302.011 173.225C304.908 171.573 300.115 161.733 300.115 161.733L297.218 159.291C297.218 159.291 306.338 158.501 294.393 142.951C283.163 136.379 265.567 144.747 265.567 144.747Z" fill="#E63946"/>
<path d="M172.579 181.413C172.579 181.413 163.138 183.029 165.283 192.832C169.575 199.835 179.947 192.402 179.947 192.402C179.947 192.402 182.594 189.385 179.947 185.83C177.3 182.274 173.903 181.053 172.579 181.413Z" fill="white"/>
<path opacity="0.44" d="M52.3785 350.772C52.3785 350.772 54.0594 378.209 94.581 389.988C135.102 401.767 70.154 322.402 80.776 280.888C80.776 280.888 89.8961 312.311 98.4081 307.75C106.92 303.189 90.3251 237.938 100.089 238.512C109.852 239.087 106.598 252.482 124.659 254.277C142.72 256.073 155.202 231.294 148.228 195.849C141.254 160.404 151.232 148.266 172.87 150.923C194.507 153.581 204.7 167.874 215.072 165.935C225.444 163.995 168.864 136.487 209.385 143.597C209.385 143.597 203.772 138.614 194.786 140.753C194.786 140.753 188.367 140.753 188.367 149.74C188.367 149.74 165.686 146.317 163.119 148.028C158.411 145.889 156.272 147.172 143.862 149.74C134.491 155.629 117.38 162.15 117.38 162.15C117.38 162.15 111.757 153.379 107.966 153.163C104.175 152.948 103.686 165.573 85.285 150.923C57.8981 139.898 30.5101 124.92 27.5146 139.898C27.5146 139.898 37.7849 146.722 46.7715 173.704C46.7715 186.97 50.1949 185.258 58.326 200.236C70.308 208.367 68.258 221.49 68.258 221.49C68.258 221.49 59.353 344.559 52.3785 350.772Z" fill="#E63946"/>
<path d="M173.046 183.711C173.046 183.711 167.073 183.603 167.645 188.595C168.217 193.587 179.769 190.247 177.91 186.871C176.014 183.46 173.725 183.675 173.046 183.711Z" fill="#E63946"/>
<path d="M212.137 262.645C212.137 262.645 214.533 253.416 228.839 247.239C243.145 241.062 301.334 206.479 293.216 171.429C293.216 171.429 296.756 195.059 307.45 195.813C307.45 195.813 308.595 207.879 296.327 197.609C296.327 197.609 270.97 234.885 247.473 242.283C223.975 249.717 233.882 262.07 212.137 262.645Z" fill="#E63946"/>
<path opacity="0.16" d="M293.97 229.39C293.97 229.39 215.681 285.844 215.681 301.214C207.992 331.2 223.514 393.866 219.902 401.12C216.289 408.374 280.7 370.679 292.002 347.444C292.002 347.444 290.036 338.742 275.301 284.264C275.301 284.264 274.192 264.404 280.558 251.332C286.925 238.297 293.255 234.562 293.97 229.39Z" fill="#E63946"/>
<path d="M77.386 198.905C77.386 198.905 71.478 188.834 65.284 184.063C59.09 179.292 47.2867 157.651 41.8908 148.451C36.4949 139.251 65.086 172.655 75.063 187.934C75.063 187.934 71.764 188.646 77.386 198.905Z" fill="#E63946"/>
<path d="M67.7921 235.352C66.7551 270.617 52.4489 350.772 52.4489 350.772C58.6721 396.596 150.086 405.358 191.967 407.908C233.776 410.457 283.784 359.376 289.434 351.295C295.085 343.179 278.839 298.88 275.334 284.3C271.829 269.719 280.663 251.369 280.663 251.369C280.663 251.369 297.616 228.385 305.162 206.982C312.708 185.578 300.513 175.846 302.122 173.225C303.731 170.603 301.907 163.565 300.227 161.733C298.045 162.056 297.33 159.291 297.33 159.291C297.33 159.291 305.448 157.675 294.504 142.951C279.841 135.517 268.611 145.357 254.698 148.158C240.786 150.959 236.494 161.087 233.525 159.435C230.593 157.819 224.656 156.777 224.656 156.777C222.724 152.037 206.738 141.766 206.738 141.766C179.38 135.19 197.964 153.283 182.376 149.312C145.574 139.938 116.347 164.35 116.096 160.866C115.846 157.347 106.682 152.736 106.682 152.736C101.818 160.852 94.6231 156.669 94.6231 156.669C94.6231 156.669 43.2782 127.936 30.5102 135.19C17.7422 142.445 42.9202 141.946 46.7716 173.704C60.4651 221.632 69.8301 187.374 67.7921 235.352Z" stroke="#E63946" stroke-width="4" stroke-miterlimit="10"/>
<g filter="url(#filter0_d_5175_7872)">
<path d="M80.2151 62.938C78.2991 54.1955 86.5891 54.6166 90.1911 56.2946L83.7761 61.1574L85.5571 82.5232L88.9961 88.1712C90.3711 90.4302 87.9321 93.2052 86.5401 94.3102L87.3391 103.888C89.7331 105.914 91.9431 105.73 91.8211 122.061C91.7241 135.126 98.1691 192.255 101.403 219.187C103.615 245.71 116.529 264.169 121.973 270.144C122.526 270.84 122.415 271.888 117.553 270.513C111.475 268.794 105.027 244.85 105.396 249.271C105.69 252.807 109.203 265.274 110.922 271.066C108.589 272.744 102.266 275.793 95.6351 274.566C87.3461 273.031 87.1631 279.723 86.7941 275.303C86.4991 271.767 85.4431 270.964 84.9521 271.005C79.7951 271.435 79.7331 270.699 81.0841 269.102C82.1651 267.825 83.6621 264.436 84.2761 262.901C81.6241 266.683 78.9151 266.81 77.8911 266.401C82.5081 264.829 85.8721 255.35 86.9771 250.806C87.5901 231.467 79.9731 131.209 78.8671 117.948C77.9821 107.339 81.6901 104.359 83.6551 104.195L82.8561 94.6182C81.8741 94.6992 79.6891 93.9912 78.8041 90.5042C77.9201 87.0172 80.4821 83.9352 81.8741 82.8302L80.2151 62.938Z" fill="#FF9F1C"/>
</g>
<defs>
<filter id="filter0_d_5175_7872" x="77.8911" y="55.3281" width="52.3091" height="229.509" filterUnits="userSpaceOnUse" color-interpolation-filters="sRGB">
<feFlood flood-opacity="0" result="BackgroundImageFix"/>
<feColorMatrix in="SourceAlpha" type="matrix" values="0 0 0 0 0 0 0 0 0 0 0 0 0 0 0 0 0 0 127 0" result="hardAlpha"/>
<feOffset dx="4" dy="4"/>
<feGaussianBlur stdDeviation="2"/>
<feColorMatrix type="matrix" values="0 0 0 0 0 0 0 0 0 0 0 0 0 0 0 0 0 0 0.25 0"/>
<feBlend mode="normal" in2="BackgroundImageFix" result="effect1_dropShadow_5175_7872"/>
<feBlend mode="normal" in="SourceGraphic" in2="effect1_dropShadow_5175_7872" result="shape"/>
</filter>
</defs>
</svg>
