<svg width="205" height="205" viewBox="0 0 205 205" fill="none" xmlns="http://www.w3.org/2000/svg">
<circle cx="102.5" cy="102.5" r="102.5" fill="white"/>
<path fill-rule="evenodd" clip-rule="evenodd" d="M183.249 102.5H16.001V107H85.7503C91.1351 107 95.5002 111.365 95.5002 116.75V122.75C95.5002 128.135 91.1351 132.5 85.7503 132.5H16.001L16.001 137H183.249C188.634 137 192.999 132.634 192.999 127.25V112.25C192.999 106.865 188.634 102.5 183.249 102.5Z" fill="#334870"/>
<path fill-rule="evenodd" clip-rule="evenodd" d="M91.7503 102.5H16.001V107H44.6533C50.038 107 54.4032 111.365 54.4032 116.75V122.75C54.4032 128.135 50.038 132.5 44.6533 132.5H16.001L16.001 137H91.7503C97.135 137 101.5 132.634 101.5 127.25V112.25C101.5 106.865 97.135 102.5 91.7503 102.5Z" fill="#22314D"/>
<path fill-rule="evenodd" clip-rule="evenodd" d="M88.7494 107H20.5C23.8137 107 26.4999 109.686 26.4999 112.999V126.499C26.4999 129.813 23.8137 132.499 20.5 132.499H88.7494C92.4773 132.499 95.4993 129.477 95.4993 125.749V113.749C95.4993 110.022 92.4772 107 88.7494 107Z" fill="#F0EDE5"/>
<path fill-rule="evenodd" clip-rule="evenodd" d="M88.7494 107H20.5C23.8137 107 26.4999 109.686 26.4999 112.999V118.499H95.4993V113.749C95.4993 110.022 92.4772 107 88.7494 107Z" fill="#E7E1D4"/>
<path fill-rule="evenodd" clip-rule="evenodd" d="M109.749 137H118.749C124.134 137 128.499 132.634 128.499 127.25V112.25C128.499 106.865 124.134 102.5 118.749 102.5H109.749C115.134 102.5 119.499 106.865 119.499 112.25V127.25C119.499 132.634 115.134 137 109.749 137Z" fill="#E9B248"/>
<path fill-rule="evenodd" clip-rule="evenodd" d="M19.7505 67.9995H183.999V70.2496H110.5C107.186 70.2496 104.5 72.9359 104.5 76.2496V94.2494C104.5 97.5631 107.186 100.249 110.5 100.249H183.999V102.499H19.7505C12.709 102.499 7.00067 96.7909 7.00067 89.7493V80.7494C7.00067 73.7078 12.709 67.9995 19.7505 67.9995Z" fill="#F3D56A"/>
<path fill-rule="evenodd" clip-rule="evenodd" d="M108 68H184V72H153C149.686 72 147 74.6863 147 77.9999V92.0001C147 95.3137 149.686 98 153 98H184V102H108C103.582 102 100 98.4183 100 94V76C100 71.5817 103.582 68 108 68Z" fill="#F2C759"/>
<path d="M182 72H110C106.686 72 104 74.6863 104 77.9999V92.0001C104 95.3137 106.686 98 110 98H182V72Z" fill="#F0EDE5"/>
<path d="M182 72H110C106.686 72 104 74.6863 104 77.9999V85H182V72Z" fill="#DFDACC"/>
<path d="M115 95.5V85H124V95.5L119.5 93.5L115 95.5Z" fill="#D85D5D"/>
<path d="M73.5 129L67 130.5L70 127V118.5H79V127L76 130.5L73.5 129Z" fill="#6080AA"/>
<path fill-rule="evenodd" clip-rule="evenodd" d="M9.24983 137H201.248V138.499H114.999C112.928 138.499 111.249 140.178 111.249 142.249V152.749C111.249 154.82 112.928 156.499 114.999 156.499H201.248V157.999H9.24983C4.69353 157.999 0.999908 154.306 0.999908 149.749V145.249C0.999908 140.693 4.69353 137 9.24983 137Z" fill="#C9526F"/>
<path fill-rule="evenodd" clip-rule="evenodd" d="M113 137H201V140H164.75C162.679 140 161 141.679 161 143.75V151.25C161 153.321 162.679 155 164.75 155H201V158H113C110.239 158 108 155.761 108 153V142C108 139.239 110.239 137 113 137Z" fill="#AC3350"/>
<path d="M200 140H114.75C112.679 140 111 141.679 111 143.75V151.25C111 153.321 112.679 155 114.75 155H200V140Z" fill="#F0EDE5"/>
<path d="M200 140H114.75C112.679 140 111 141.679 111 143.75V148H200V140Z" fill="#DFDACC"/>
<path fill-rule="evenodd" clip-rule="evenodd" d="M13.0018 47H205V48.5002H118.751C116.68 48.5002 115.001 50.1791 115.001 52.2502V62.7501C115.001 64.8211 116.68 66.5 118.751 66.5H205V67.9998H13.0018C8.44548 67.9998 4.75186 64.3062 4.75186 59.7499V55.2499C4.75186 50.6936 8.44548 47 13.0018 47Z" fill="#855438"/>
<path fill-rule="evenodd" clip-rule="evenodd" d="M118 47H205V50H165.75C163.679 50 162 51.6789 162 53.75V61.25C162 63.3211 163.679 65 165.75 65H205V68H118C114.686 68 112 65.3137 112 62V53C112 49.6863 114.686 47 118 47Z" fill="#76462A"/>
<path d="M203 50H118.75C116.679 50 115 51.6789 115 53.75V61.25C115 63.3211 116.679 65 118.75 65H203V50Z" fill="#F0EDE5"/>
<path d="M203 50H118.75C116.679 50 115 51.6789 115 53.75V58H203V50Z" fill="#DFDACC"/>
<path fill-rule="evenodd" clip-rule="evenodd" d="M96.2519 68.0003H87.2516C85.1805 68.0003 83.5016 66.3214 83.5016 64.2503V50.7505C83.5016 48.6794 85.1805 47.0005 87.2516 47.0005H96.252C94.1809 47.0005 92.502 48.6794 92.502 50.7505V64.2503C92.502 66.3214 94.1809 68.0003 96.2519 68.0003Z" fill="#334870"/>
<path fill-rule="evenodd" clip-rule="evenodd" d="M34.7519 67.9998H25.7526C23.6815 67.9998 22.0026 66.3209 22.0026 64.2498V50.75C22.0026 48.6789 23.6815 47 25.7526 47H34.752C32.6809 47 31.002 48.6789 31.002 50.75V64.2498C31.002 66.3209 32.6809 67.9998 34.7519 67.9998Z" fill="#334870"/>
</svg>
