<svg width="210" height="450" viewBox="0 0 210 450" fill="none" xmlns="http://www.w3.org/2000/svg">
<circle cx="103.968" cy="222.642" r="103.968" fill="white"/>
<path d="M22.1393 246.262L185.699 158.768V250.186C185.699 250.685 185.469 251.687 184.761 252.842C184.057 253.989 183.232 254.712 182.697 254.998L19.137 342.492V251.074C19.137 250.575 19.3665 249.574 20.075 248.419C20.7789 247.272 21.6039 246.549 22.1393 246.262Z" stroke="#EFF6FF" stroke-width="12.5593"/>
<mask id="path-3-inside-1_3846_86584" fill="white">
<path d="M12.7485 251.074V346.122C12.7485 348.438 13.7852 349.934 15.3782 350.342L20.1993 352.703L19.5232 350.861C19.2339 350.073 19.0922 349.24 19.1049 348.402L20.6375 248.042L14.6442 245.112C13.4742 246.996 12.7485 249.137 12.7485 251.074Z"/>
</mask>
<path d="M15.3782 350.342L21.0756 339.101L19.8858 338.518L18.5995 338.189L15.3782 350.342ZM20.1993 352.703L14.5018 363.945L43.0399 377.92L32.2175 348.44L20.1993 352.703ZM19.5232 350.861L7.50489 355.125L7.5049 355.125L19.5232 350.861ZM14.6442 245.112L20.3346 233.867L9.84217 228.737L3.73771 238.57L14.6442 245.112ZM20.6375 248.042L33.4129 248.231L33.5337 240.321L26.3279 236.797L20.6375 248.042ZM19.1049 348.402L31.8804 348.591L31.8804 348.591L19.1049 348.402ZM25.5254 346.122V251.074L-0.0283115 251.074V346.122L25.5254 346.122ZM18.5995 338.189C21.0493 338.816 23.059 340.355 24.2745 342.25C25.3918 343.992 25.5254 345.507 25.5254 346.122L-0.0283115 346.122C-0.0283115 352.012 3.07205 360.169 12.1569 362.496L18.5995 338.189ZM9.68078 361.584L14.5018 363.945L25.8967 341.462L21.0756 339.101L9.68078 361.584ZM32.2175 348.44L31.5415 346.598L7.5049 355.125L8.18098 356.966L32.2175 348.44ZM3.73771 238.57C1.67585 241.891 -0.0283115 246.274 -0.0283115 251.074L25.5254 251.074C25.5254 251.356 25.4995 251.56 25.4788 251.681C25.4579 251.802 25.4374 251.868 25.4337 251.879C25.4307 251.888 25.4624 251.796 25.5506 251.654L3.73771 238.57ZM8.95374 256.357L14.9471 259.287L26.3279 236.797L20.3346 233.867L8.95374 256.357ZM7.86213 247.854L6.32954 348.214L31.8804 348.591L33.4129 248.231L7.86213 247.854ZM31.5415 346.598C31.7759 347.237 31.8907 347.912 31.8804 348.591L6.32954 348.214C6.29359 350.568 6.69181 352.91 7.50489 355.125L31.5415 346.598Z" fill="#DAE6F6" mask="url(#path-3-inside-1_3846_86584)"/>
<rect x="0.91762" y="0.549793" width="201.305" height="106.841" rx="5.89709" transform="matrix(0.881765 -0.471689 0 1 18.1158 247.081)" fill="white" stroke="#EFF6FF" stroke-width="2.08133"/>
<path d="M75.1451 222.281L30.5756 245.913C29.9177 246.262 29.3752 247.098 29.3094 247.834C29.3007 247.932 29.3133 248.03 29.3342 248.125L31.9009 259.882C31.9218 259.977 31.9296 260.076 31.9399 260.173C31.9716 260.472 32.1015 260.699 32.3102 260.813L33.7176 261.581C34.033 261.753 34.4881 261.645 34.9178 261.296L80.6831 224.18L77.3265 222.493C77.0996 222.379 76.9005 222.213 76.6688 222.109C76.2542 221.923 75.7132 221.979 75.1451 222.281Z" fill="#CCE2FF"/>
<path d="M29.3027 247.981V259.188C29.3027 259.56 29.4388 259.844 29.6805 259.976L33.7176 261.581C33.8627 261.66 34.0375 261.68 34.2257 261.644V249.298L29.4333 247.297C29.3497 247.527 29.3027 247.761 29.3027 247.981Z" fill="#88BBFF"/>
<rect width="54.0467" height="13.1817" rx="1.38755" transform="matrix(0.881765 -0.471689 0 1 33.6851 249.1)" fill="#436CA5"/>
<path d="M163.407 174.246L85.8979 216.33C85.1958 216.702 84.625 217.63 84.625 218.398V229.605C84.625 229.977 84.7611 230.261 85.0028 230.393L89.0399 231.998C89.3553 232.17 89.8103 232.062 90.24 231.713L168.945 176.145L165.588 174.459C165.361 174.345 165.162 174.178 164.93 174.074C164.516 173.888 163.975 173.945 163.407 174.246Z" fill="#CCE2FF"/>
<path d="M84.625 218.398V229.605C84.625 229.977 84.7611 230.261 85.0028 230.393L89.0399 231.998C89.185 232.077 89.3597 232.096 89.5479 232.061V219.714L84.7556 217.714C84.672 217.944 84.625 218.178 84.625 218.398Z" fill="#88BBFF"/>
<path d="M89.0078 220.904C89.0078 220.138 89.5752 219.213 90.2752 218.839L168.336 176.25C169.036 175.875 169.603 176.193 169.603 176.959V187.366C169.603 188.132 169.036 189.057 168.336 189.431L90.2752 232.02C89.5752 232.395 89.0078 232.077 89.0078 231.311V220.904Z" fill="#436CA5"/>
<path d="M153.874 210.365L30.6757 275.846C29.9736 276.219 29.4028 277.146 29.4028 277.915V289.122C29.4028 289.494 29.5389 289.777 29.7806 289.909L33.8177 291.514C34.1331 291.686 34.5882 291.578 35.0179 291.23L159.412 212.264L156.055 210.577C155.828 210.463 155.629 210.297 155.397 210.193C154.983 210.007 154.442 210.063 153.874 210.365Z" fill="#CCE2FF"/>
<path d="M29.4028 277.915V289.122C29.4028 289.494 29.5389 289.777 29.7806 289.909L33.8177 291.514C33.9628 291.593 34.1376 291.613 34.3258 291.577V279.231L29.5334 277.231C29.4498 277.46 29.4028 277.694 29.4028 277.915Z" fill="#88BBFF"/>
<path d="M33.7856 280.421C33.7856 279.654 34.353 278.73 35.053 278.355L158.803 212.368C159.503 211.994 160.071 212.312 160.071 213.078V223.485C160.071 224.251 159.503 225.176 158.803 225.55L35.053 291.537C34.353 291.911 33.7856 291.594 33.7856 290.827V280.421Z" fill="#436CA5"/>
<path d="M150.368 240.507L32.4296 303.477C31.7275 303.849 31.1567 304.777 31.1567 305.546V316.753C31.1567 317.125 31.2928 317.408 31.5346 317.54L35.5716 319.145C35.887 319.317 36.3421 319.209 36.7718 318.861L155.906 242.406L152.55 240.72C152.323 240.606 152.124 240.439 151.892 240.335C151.477 240.149 150.936 240.206 150.368 240.507Z" fill="#CCE2FF"/>
<path d="M31.1567 305.546V316.753C31.1567 317.125 31.2928 317.408 31.5346 317.54L35.5716 319.145C35.7168 319.224 35.8915 319.244 36.0797 319.208V306.862L31.2873 304.861C31.2037 305.091 31.1567 305.325 31.1567 305.546Z" fill="#88BBFF"/>
<path d="M35.5395 308.051C35.5395 307.285 36.107 306.36 36.8069 305.986L155.298 242.511C155.998 242.137 156.565 242.454 156.565 243.221V253.627C156.565 254.394 155.998 255.318 155.298 255.693L36.8069 319.168C36.107 319.542 35.5395 319.224 35.5395 318.458V308.051Z" fill="#436CA5"/>
<g clip-path="url(#clip0_3846_86584)">
<path d="M161.713 265.486L118.688 288.293C118.01 288.652 117.459 289.569 117.459 290.338V301.545C117.459 301.916 117.591 302.203 117.824 302.339L121.721 304.019C122.026 304.197 122.465 304.097 122.88 303.757L167.059 267.488L163.829 265.745C163.603 265.623 163.406 265.448 163.174 265.338C162.775 265.15 162.257 265.198 161.713 265.486Z" fill="#CCE2FF"/>
<path d="M117.459 290.338V301.545C117.459 301.916 117.591 302.203 117.824 302.339L121.721 304.019C121.861 304.1 122.03 304.123 122.212 304.091V291.745L117.585 289.656C117.505 289.884 117.459 290.117 117.459 290.338Z" fill="#88BBFF"/>
<path d="M121.69 292.925C121.69 292.158 122.238 291.244 122.914 290.883L166.472 267.582C167.147 267.22 167.695 267.548 167.695 268.315V278.721C167.695 279.488 167.147 280.402 166.472 280.763L122.914 304.064C122.238 304.426 121.69 304.098 121.69 303.331V292.925Z" fill="#436CA5"/>
<path d="M107.299 294.621L32.4758 335.269C31.7981 335.628 31.2471 336.545 31.2471 337.313V348.52C31.2471 348.892 31.3784 349.178 31.6118 349.315L35.509 350.994C35.8134 351.172 36.2527 351.073 36.6675 350.732L112.645 296.623L109.415 294.88C109.189 294.758 108.992 294.583 108.76 294.473C108.361 294.285 107.843 294.333 107.299 294.621Z" fill="#CCE2FF"/>
<path d="M31.2471 337.313V348.52C31.2471 348.892 31.3784 349.178 31.6118 349.315L35.509 350.994C35.6491 351.076 35.8177 351.099 35.9994 351.067V338.721L31.3731 336.631C31.2924 336.86 31.2471 337.093 31.2471 337.313Z" fill="#88BBFF"/>
<path d="M35.478 339.9C35.478 339.134 36.0258 338.22 36.7015 337.858L112.057 296.717C112.733 296.355 113.281 296.683 113.281 297.45V307.856C113.281 308.623 112.733 309.537 112.057 309.898L36.7015 351.04C36.0258 351.402 35.478 351.073 35.478 350.307V339.9Z" fill="#436CA5"/>
</g>
<line y1="-0.418643" x2="187.03" y2="-0.418643" transform="matrix(0.881765 -0.471689 0 1 24.9053 272.792)" stroke="#D4DDE8" stroke-width="0.837286"/>
<line y1="-0.418643" x2="187.03" y2="-0.418643" transform="matrix(0.881765 -0.471689 0 1 24.9053 302.624)" stroke="#D4DDE8" stroke-width="0.837286"/>
<line y1="-0.418643" x2="187.03" y2="-0.418643" transform="matrix(0.881765 -0.471689 0 1 24.9053 332.456)" stroke="#D4DDE8" stroke-width="0.837286"/>
<rect x="0.91762" y="0.549793" width="201.305" height="42.3203" rx="5.89709" transform="matrix(0.881765 -0.471689 0 1 18.1173 195.024)" stroke="#D4DDE8" stroke-width="2.08133"/>
<rect x="0.305873" y="0.183264" width="132.262" height="12.488" rx="1.04066" transform="matrix(0.881765 -0.471689 0 1 33.8882 202.218)" fill="#E7EBF1" stroke="#E7EBF1" stroke-width="0.693775"/>
<path d="M182.697 138.421L19.137 225.915V199.018C19.137 198.519 19.3665 197.517 20.075 196.362C20.7789 195.215 21.6039 194.492 22.1393 194.206L185.699 106.711V133.609C185.699 134.107 185.469 135.109 184.761 136.264C184.057 137.411 183.232 138.134 182.697 138.421Z" stroke="#EFF6FF" stroke-width="12.5593"/>
<mask id="path-19-inside-2_3846_86584" fill="white">
<path d="M12.7485 199.017V229.543C12.7485 231.859 13.7852 233.356 15.3782 233.764L20.6375 236.32L19.0856 233.091L20.6375 196.549L14.5552 193.2C13.4375 195.049 12.7485 197.129 12.7485 199.017Z"/>
</mask>
<path d="M15.3782 233.764L21.0411 222.506L19.867 221.935L18.5995 221.61L15.3782 233.764ZM20.6375 236.32L14.9746 247.578L47.863 263.562L32.1899 230.955L20.6375 236.32ZM19.0856 233.091L6.31987 232.567L6.18858 235.659L7.53327 238.456L19.0856 233.091ZM20.6375 196.549L33.4033 197.073L33.7307 189.363L26.8818 185.592L20.6375 196.549ZM14.5552 193.2L20.7995 182.242L9.9339 176.259L3.57146 186.784L14.5552 193.2ZM25.5254 229.543V199.017L-0.0283115 199.017V229.543L25.5254 229.543ZM18.5995 221.61C21.0493 222.238 23.059 223.776 24.2745 225.672C25.3918 227.414 25.5254 228.928 25.5254 229.543L-0.0283115 229.543C-0.0283115 235.433 3.07207 243.591 12.1569 245.917L18.5995 221.61ZM26.3004 225.062L21.0411 222.506L9.7153 245.022L14.9746 247.578L26.3004 225.062ZM7.53327 238.456L9.08521 241.685L32.1899 230.955L30.6379 227.726L7.53327 238.456ZM31.8513 233.615L33.4033 197.073L7.87181 196.025L6.31987 232.567L31.8513 233.615ZM3.57146 186.784C1.59639 190.051 -0.0283115 194.331 -0.0283115 199.017L25.5254 199.017C25.5254 199.292 25.5008 199.493 25.4805 199.614C25.46 199.736 25.4395 199.804 25.4345 199.819C25.4288 199.837 25.4556 199.754 25.539 199.616L3.57146 186.784ZM26.8818 185.592L20.7995 182.242L8.31093 204.157L14.3932 207.506L26.8818 185.592Z" fill="#DAE6F6" mask="url(#path-19-inside-2_3846_86584)"/>
<rect x="0.91762" y="0.549793" width="201.305" height="42.3203" rx="5.89709" transform="matrix(0.881765 -0.471689 0 1 18.1158 195.024)" fill="white" stroke="#EFF6FF" stroke-width="2.08133"/>
<path d="M109.939 157.057L32.4301 199.141C31.728 199.514 31.1572 200.441 31.1572 201.21V212.417C31.1572 212.789 31.2933 213.072 31.535 213.204L35.5721 214.809C35.8875 214.981 36.3426 214.873 36.7723 214.525L115.477 158.957L112.12 157.27C111.893 157.156 111.694 156.99 111.463 156.886C111.048 156.7 110.507 156.756 109.939 157.057Z" fill="#EFF6FF"/>
<path d="M31.1572 201.21V212.417C31.1572 212.789 31.2933 213.072 31.535 213.204L35.5721 214.809C35.7172 214.888 35.8919 214.908 36.0801 214.872V202.526L31.2878 200.526C31.2042 200.755 31.1572 200.989 31.1572 201.21Z" fill="#DAE6F7"/>
<path d="M35.54 203.716C35.54 202.949 36.1074 202.024 36.8074 201.65L114.868 159.061C115.568 158.687 116.136 159.005 116.136 159.771V170.177C116.136 170.944 115.568 171.869 114.868 172.243L36.8074 214.832C36.1074 215.206 35.54 214.889 35.54 214.122V203.716Z" fill="#D2D8E2"/>
<path d="M162.462 136.995C162.85 135.961 163.637 135.235 164.219 135.374L169.467 136.625C169.893 136.727 170.447 136.364 170.873 135.705L176.121 127.586C176.526 126.96 177.03 126.622 177.43 126.651C177.761 126.675 178.084 126.736 178.408 126.8L179.733 127.002L177.527 129.491L172.279 137.61C171.002 139.586 169.338 140.674 168.061 140.37L162.813 139.119C162.231 138.98 162.073 138.029 162.462 136.995Z" fill="#EFF6FF"/>
<path d="M165.662 137.609L170.815 138.838C171.697 139.048 172.935 138.238 173.816 136.875L178.969 128.901" stroke="#D2D8E2" stroke-width="2.7751" stroke-linecap="round"/>
<path d="M178.15 239.652L199.39 252.578C199.974 252.933 200.027 254.284 199.475 254.731L195.9 257.625L194.26 258.953C193.828 259.303 193.742 260.273 194.092 260.842L199.742 270.012C200.021 270.464 200.033 271.204 199.768 271.665L200.499 279.061L196.517 276.707C196.36 276.685 196.206 276.574 196.084 276.375L190.434 267.205C190.083 266.637 189.509 266.815 189.316 267.553L188.583 270.353L190.294 279.536L186.312 277.137C186.06 277.108 185.814 276.857 185.702 276.39L177.277 241.169C177.053 240.233 177.585 239.308 178.15 239.652Z" fill="#EDF3FD"/>
<path d="M203.392 254.967L182.117 242.02C181.559 241.68 181.033 242.595 181.254 243.521L189.693 278.798C189.921 279.754 190.718 279.794 190.961 278.863L192.567 272.731L193.304 269.914C193.495 269.185 194.062 269.008 194.408 269.569L200.073 278.763C200.349 279.21 200.784 279.204 201.046 278.748L203.756 274.033C204.018 273.578 204.007 272.846 203.731 272.399L198.067 263.206C197.721 262.644 197.806 261.685 198.233 261.339L199.883 260.003L203.475 257.095C204.02 256.653 203.968 255.318 203.392 254.967Z" fill="#BCC5D2"/>
<defs>
<clipPath id="clip0_3846_86584">
<rect width="157.317" height="81.9477" fill="white" transform="matrix(0.881765 -0.471689 0 1 33.7861 263.588)"/>
</clipPath>
</defs>
</svg>
