<svg width="1150" height="252" viewBox="0 0 1150 252" fill="none" xmlns="http://www.w3.org/2000/svg">
<path d="M382.92 123.7C380.4 118.847 376.9 115.207 372.42 112.78C367.94 110.26 362.76 109 356.88 109C350.44 109 344.7 110.447 339.66 113.34C334.62 116.233 330.653 120.34 327.76 125.66C324.96 130.98 323.56 137.14 323.56 144.14C323.56 151.14 324.96 157.347 327.76 162.76C330.653 168.08 334.62 172.187 339.66 175.08C344.7 177.973 350.44 179.42 356.88 179.42C365.56 179.42 372.607 176.993 378.02 172.14C383.433 167.287 386.747 160.707 387.96 152.4H351.42V139.66H405.04V152.12C404.013 159.68 401.307 166.633 396.92 172.98C392.627 179.327 386.98 184.413 379.98 188.24C373.073 191.973 365.373 193.84 356.88 193.84C347.733 193.84 339.38 191.74 331.82 187.54C324.26 183.247 318.24 177.32 313.76 169.76C309.373 162.2 307.18 153.66 307.18 144.14C307.18 134.62 309.373 126.08 313.76 118.52C318.24 110.96 324.26 105.08 331.82 100.88C339.473 96.5867 347.827 94.44 356.88 94.44C367.24 94.44 376.433 97.0067 384.46 102.14C392.58 107.18 398.46 114.367 402.1 123.7H382.92ZM430.441 127.06C432.775 123.14 435.855 120.107 439.681 117.96C443.601 115.72 448.221 114.6 453.541 114.6V131.12H449.481C443.228 131.12 438.468 132.707 435.201 135.88C432.028 139.053 430.441 144.56 430.441 152.4V193H414.481V115.86H430.441V127.06ZM456.592 154.08C456.592 146.333 458.178 139.473 461.352 133.5C464.618 127.527 469.005 122.907 474.512 119.64C480.112 116.28 486.272 114.6 492.992 114.6C499.058 114.6 504.332 115.813 508.812 118.24C513.385 120.573 517.025 123.513 519.732 127.06V115.86H535.832V193H519.732V181.52C517.025 185.16 513.338 188.193 508.672 190.62C504.005 193.047 498.685 194.26 492.712 194.26C486.085 194.26 480.018 192.58 474.512 189.22C469.005 185.767 464.618 181.007 461.352 174.94C458.178 168.78 456.592 161.827 456.592 154.08ZM519.732 154.36C519.732 149.04 518.612 144.42 516.372 140.5C514.225 136.58 511.378 133.593 507.832 131.54C504.285 129.487 500.458 128.46 496.352 128.46C492.245 128.46 488.418 129.487 484.872 131.54C481.325 133.5 478.432 136.44 476.192 140.36C474.045 144.187 472.972 148.76 472.972 154.08C472.972 159.4 474.045 164.067 476.192 168.08C478.432 172.093 481.325 175.173 484.872 177.32C488.512 179.373 492.338 180.4 496.352 180.4C500.458 180.4 504.285 179.373 507.832 177.32C511.378 175.267 514.225 172.28 516.372 168.36C518.612 164.347 519.732 159.68 519.732 154.36ZM545.175 154.08C545.175 146.333 546.761 139.473 549.935 133.5C553.201 127.527 557.588 122.907 563.095 119.64C568.695 116.28 574.901 114.6 581.715 114.6C586.755 114.6 591.701 115.72 596.555 117.96C601.501 120.107 605.421 123 608.315 126.64V89.4H624.415V193H608.315V181.38C605.701 185.113 602.061 188.193 597.395 190.62C592.821 193.047 587.548 194.26 581.575 194.26C574.855 194.26 568.695 192.58 563.095 189.22C557.588 185.767 553.201 181.007 549.935 174.94C546.761 168.78 545.175 161.827 545.175 154.08ZM608.315 154.36C608.315 149.04 607.195 144.42 604.955 140.5C602.808 136.58 599.961 133.593 596.415 131.54C592.868 129.487 589.041 128.46 584.935 128.46C580.828 128.46 577.001 129.487 573.455 131.54C569.908 133.5 567.015 136.44 564.775 140.36C562.628 144.187 561.555 148.76 561.555 154.08C561.555 159.4 562.628 164.067 564.775 168.08C567.015 172.093 569.908 175.173 573.455 177.32C577.095 179.373 580.921 180.4 584.935 180.4C589.041 180.4 592.868 179.373 596.415 177.32C599.961 175.267 602.808 172.28 604.955 168.36C607.195 164.347 608.315 159.68 608.315 154.36ZM708.937 115.86V193H692.977V183.9C690.457 187.073 687.144 189.593 683.037 191.46C679.024 193.233 674.731 194.12 670.157 194.12C664.091 194.12 658.631 192.86 653.777 190.34C649.017 187.82 645.237 184.087 642.437 179.14C639.731 174.193 638.377 168.22 638.377 161.22V115.86H654.197V158.84C654.197 165.747 655.924 171.067 659.377 174.8C662.831 178.44 667.544 180.26 673.517 180.26C679.491 180.26 684.204 178.44 687.657 174.8C691.204 171.067 692.977 165.747 692.977 158.84V115.86H708.937ZM718.375 154.08C718.375 146.333 719.962 139.473 723.135 133.5C726.402 127.527 730.789 122.907 736.295 119.64C741.895 116.28 748.055 114.6 754.775 114.6C760.842 114.6 766.115 115.813 770.595 118.24C775.169 120.573 778.809 123.513 781.515 127.06V115.86H797.615V193H781.515V181.52C778.809 185.16 775.122 188.193 770.455 190.62C765.789 193.047 760.469 194.26 754.495 194.26C747.869 194.26 741.802 192.58 736.295 189.22C730.789 185.767 726.402 181.007 723.135 174.94C719.962 168.78 718.375 161.827 718.375 154.08ZM781.515 154.36C781.515 149.04 780.395 144.42 778.155 140.5C776.009 136.58 773.162 133.593 769.615 131.54C766.069 129.487 762.242 128.46 758.135 128.46C754.029 128.46 750.202 129.487 746.655 131.54C743.109 133.5 740.215 136.44 737.975 140.36C735.829 144.187 734.755 148.76 734.755 154.08C734.755 159.4 735.829 164.067 737.975 168.08C740.215 172.093 743.109 175.173 746.655 177.32C750.295 179.373 754.122 180.4 758.135 180.4C762.242 180.4 766.069 179.373 769.615 177.32C773.162 175.267 776.009 172.28 778.155 168.36C780.395 164.347 781.515 159.68 781.515 154.36ZM830.898 128.88V171.58C830.898 174.473 831.551 176.573 832.858 177.88C834.258 179.093 836.591 179.7 839.858 179.7H849.658V193H837.058C829.871 193 824.365 191.32 820.538 187.96C816.711 184.6 814.798 179.14 814.798 171.58V128.88H805.698V115.86H814.798V96.68H830.898V115.86H849.658V128.88H830.898ZM928.768 152.54C928.768 155.433 928.581 158.047 928.208 160.38H869.268C869.735 166.54 872.021 171.487 876.128 175.22C880.235 178.953 885.275 180.82 891.248 180.82C899.835 180.82 905.901 177.227 909.448 170.04H926.668C924.335 177.133 920.088 182.967 913.928 187.54C907.861 192.02 900.301 194.26 891.248 194.26C883.875 194.26 877.248 192.627 871.368 189.36C865.581 186 861.008 181.333 857.648 175.36C854.381 169.293 852.748 162.293 852.748 154.36C852.748 146.427 854.335 139.473 857.508 133.5C860.775 127.433 865.301 122.767 871.088 119.5C876.968 116.233 883.688 114.6 891.248 114.6C898.528 114.6 905.015 116.187 910.708 119.36C916.401 122.533 920.835 127.013 924.008 132.8C927.181 138.493 928.768 145.073 928.768 152.54ZM912.108 147.5C912.015 141.62 909.915 136.907 905.808 133.36C901.701 129.813 896.615 128.04 890.548 128.04C885.041 128.04 880.328 129.813 876.408 133.36C872.488 136.813 870.155 141.527 869.408 147.5H912.108Z" fill="#EB5756"/>
<path d="M1027.99 91.1818V193H1009.39L965.096 128.916H964.351V193H942.824V91.1818H961.716L1005.66 155.216H1006.56V91.1818H1027.99ZM1108.66 91.1818H1130.19V157.304C1130.19 164.728 1128.42 171.224 1124.87 176.793C1121.36 182.361 1116.44 186.703 1110.11 189.818C1103.77 192.901 1096.4 194.442 1087.98 194.442C1079.53 194.442 1072.14 192.901 1065.81 189.818C1059.48 186.703 1054.56 182.361 1051.04 176.793C1047.53 171.224 1045.77 164.728 1045.77 157.304V91.1818H1067.3V155.464C1067.3 159.342 1068.15 162.789 1069.84 165.805C1071.56 168.821 1073.98 171.191 1077.09 172.915C1080.21 174.638 1083.84 175.5 1087.98 175.5C1092.16 175.5 1095.79 174.638 1098.87 172.915C1101.99 171.191 1104.39 168.821 1106.08 165.805C1107.8 162.789 1108.66 159.342 1108.66 155.464V91.1818Z" fill="#1C3557"/>
<path d="M12.1456 112.396C6.44746 109.696 6.44745 103.586 12.1456 100.887L138.521 41.01C142.769 38.9976 148.231 38.9976 152.479 41.01L278.854 100.887C284.553 103.586 284.553 109.696 278.854 112.396L152.479 172.272C148.231 174.285 142.769 174.285 138.521 172.272L12.1456 112.396Z" fill="#EB5756"/>
<path fill-rule="evenodd" clip-rule="evenodd" d="M38.1536 124.718L38.1537 193H52.1537V131.34L38.3405 124.783L38.1536 124.718Z" fill="#1C3557"/>
<path d="M198.534 106.021L162.25 122.543C157.074 124.9 157.074 132.253 162.25 134.61C163.996 135.405 166 135.405 167.745 134.61L216.537 112.393C222.003 109.904 222.003 102.14 216.537 99.6513L167.745 77.4331C166 76.6384 163.996 76.6384 162.25 77.4331C157.074 79.79 157.074 87.1429 162.25 89.4999L198.534 106.021Z" fill="white"/>
<path d="M90.9941 106.021L127.277 122.543C132.454 124.9 132.454 132.253 127.277 134.61C125.532 135.405 123.528 135.405 121.783 134.61L72.9904 112.393C67.5249 109.904 67.5249 102.14 72.9903 99.6513L121.783 77.4331C123.528 76.6384 125.532 76.6384 127.277 77.4331C132.454 79.79 132.454 87.1429 127.277 89.4999L90.9941 106.021Z" fill="white"/>
<path d="M152.479 186.162L227.287 150.718L227.287 183.642C227.287 188.874 223.666 193.749 217.671 196.59L152.479 227.478C148.231 229.49 142.768 229.49 138.521 227.478L73.3285 196.59C67.3333 193.749 63.7128 188.874 63.7129 183.642L63.713 150.718L138.521 186.162C142.768 188.174 148.231 188.174 152.479 186.162Z" fill="#EB5756"/>
<rect x="34" y="192" width="22" height="34" rx="3.07364" fill="#1C3557"/>
</svg>
