<svg width="18" height="18" viewBox="0 0 18 18" fill="none" xmlns="http://www.w3.org/2000/svg">
<g id="Group 548">
<circle id="Ellipse 30" cx="9" cy="9" r="9" fill="#5BBF7C"/>
<path id="Vector" d="M6 10.8099H7.2C7.2 11.4699 8.022 12.0321 9 12.0321C9.978 12.0321 10.8 11.4699 10.8 10.8099C10.8 10.1377 10.176 9.89323 8.856 9.56934C7.584 9.24545 6 8.84212 6 7.14323C6 6.04934 6.882 5.12045 8.1 4.80878V3.47656H9.9V4.80878C11.118 5.12045 12 6.04934 12 7.14323H10.8C10.8 6.48323 9.978 5.92101 9 5.92101C8.022 5.92101 7.2 6.48323 7.2 7.14323C7.2 7.81545 7.824 8.0599 9.144 8.38378C10.416 8.70767 12 9.11101 12 10.8099C12 11.9038 11.118 12.8327 9.9 13.1443V14.4766H8.1V13.1443C6.882 12.8327 6 11.9038 6 10.8099Z" fill="#DAFEE6"/>
</g>
</svg>
