<svg width="19" height="19" viewBox="0 0 19 19" fill="none" xmlns="http://www.w3.org/2000/svg">
<path fill-rule="evenodd" clip-rule="evenodd" d="M2 9.5C2 5.35786 5.35786 2 9.5 2C13.6421 2 17 5.35786 17 9.5C17 13.6421 13.6421 17 9.5 17C5.35786 17 2 13.6421 2 9.5ZM9.5 0C4.25329 0 0 4.25329 0 9.5C0 14.7467 4.25329 19 9.5 19C14.7467 19 19 14.7467 19 9.5C19 4.25329 14.7467 0 9.5 0ZM9.59277 6.4881C10.0258 6.4881 10.3769 6.13705 10.3769 5.70401C10.3769 5.27097 10.0258 4.91992 9.59277 4.91992C9.15973 4.91992 8.80868 5.27097 8.80868 5.70401C8.80868 6.13705 9.15973 6.4881 9.59277 6.4881ZM10.5928 7.84082V8.84082V13.5454V14.5454H8.59277V13.5454V8.84082V7.84082H10.5928Z" fill="#1C3557"/>
</svg>
