<svg width="16" height="21" viewBox="0 0 16 21" fill="none" xmlns="http://www.w3.org/2000/svg">
<path d="M0 9.46417V9.40812C0 9.33807 0.0700555 9.23999 0.140111 9.19795L5.10004 6.56387C5.28219 6.46579 5.50636 6.56387 5.50636 6.76002C5.50636 6.95618 5.50636 6.90013 5.50636 7.41854C5.50636 7.51662 5.43631 7.60069 5.36625 7.64272L1.91952 9.43614L5.35224 11.1595C5.4223 11.2015 5.49235 11.2856 5.49235 11.3697C5.49235 11.8881 5.49235 11.8461 5.49235 12.0282C5.49235 12.2244 5.26817 12.3224 5.08603 12.2244L0.140111 9.67433C0.0700555 9.64631 0 9.54823 0 9.46417Z" fill="#1C3557"/>
<path d="M10.4797 11.3765C10.4797 11.2924 10.5358 11.2084 10.6198 11.1663L14.0526 9.44298L10.6339 7.64956C10.5498 7.60752 10.4937 7.52346 10.4937 7.42538C10.4937 6.90697 10.4937 6.96301 10.4937 6.76686C10.4937 6.5707 10.7179 6.47263 10.9001 6.5707L15.86 9.20479C15.9301 9.24682 16.0001 9.3449 16.0001 9.41496V9.471C16.0001 9.54106 15.9301 9.63913 15.86 9.68117L10.9001 12.2312C10.7179 12.3293 10.4937 12.2312 10.4937 12.035C10.4797 11.8529 10.4797 11.9089 10.4797 11.3765Z" fill="#1C3557"/>
<path d="M6.64124 20.7849L2.99835 19.7341C2.92829 19.7201 2.87225 19.664 2.84423 19.608C2.8162 19.5379 2.80219 19.4679 2.83022 19.3978C3.27857 17.9407 4.06319 15.4607 4.41347 15.1525C4.81979 14.8022 5.64645 14.9423 6.10881 15.0544C6.80937 15.2365 7.70608 15.6288 7.88822 16.1473C8.05636 16.6096 7.38382 19.1316 6.96349 20.6028C6.94948 20.6728 6.89344 20.7289 6.83739 20.7709C6.78135 20.813 6.71129 20.813 6.64124 20.7849Z" fill="#1C3557"/>
<path opacity="0.37" d="M6.55723 20.1544C6.54322 20.1544 6.5152 20.1404 6.50119 20.1124C6.37509 19.9162 6.47317 19.1736 6.79542 17.9406C7.18773 16.4134 6.8935 16.2733 5.99679 15.881C5.96877 15.867 5.89871 15.839 5.91272 15.7689C5.91272 15.7409 5.94074 15.7129 5.99679 15.6989C6.19294 15.6848 7.2718 15.909 7.43993 16.5115C7.55202 16.9318 6.72536 19.7761 6.62729 20.0983C6.61328 20.1264 6.58525 20.1544 6.55723 20.1544C6.57124 20.1544 6.57124 20.1544 6.55723 20.1544Z" fill="#D4D4D4"/>
<path d="M8.9812 2.61224C8.51884 2.14988 8.36472 1.4213 8.56087 0.748768L8.729 0.160301C8.75703 0.0482124 8.88313 -0.0218431 8.9812 0.00617906L12.1617 0.930912C12.2738 0.958934 12.3299 1.08503 12.2878 1.19712L12.1477 1.68751C11.7554 3.07461 10.1161 3.74714 8.9812 2.61224ZM9.31747 1.00097C9.20538 1.57542 9.52764 2.13587 10.046 2.28999C10.5785 2.44411 11.1389 2.13587 11.3491 1.58943L9.31747 1.00097Z" fill="#1C3557"/>
<path d="M6.94934 14.507L6.09466 14.2548C6.0246 14.2267 5.98257 14.1567 5.99658 14.0866L8.93891 3.90057C8.96693 3.83051 9.03699 3.78848 9.10705 3.80249L9.96172 4.05469C10.0318 4.08271 10.0738 4.15277 10.0598 4.22282L7.10346 14.4089C7.10346 14.4789 7.01939 14.521 6.94934 14.507Z" fill="#1B2432"/>
</svg>
