<svg width="248" height="121" viewBox="0 0 248 121" fill="none" xmlns="http://www.w3.org/2000/svg">
<path d="M101.549 39.1177L159.725 56.0758M224.533 6.16424L182.63 49.9383M241.596 69.8437L182.63 49.9383M118.612 102.797L159.725 56.0758M159.725 56.0758L172.875 59.3417L182.63 49.9383" stroke="#EA5857" stroke-width="8" stroke-linejoin="round"/>
<path d="M237.065 72.1261L123.677 102.508C120.477 103.366 117.187 101.466 116.329 98.2655L101.837 44.1826C100.98 40.9818 102.879 37.6918 106.08 36.8341L219.467 6.45204C222.668 5.59439 225.958 7.49389 226.816 10.6947L234.062 37.7362L241.307 64.7776C242.165 67.9784 240.266 71.2684 237.065 72.1261Z" stroke="#EA5857" stroke-width="8" stroke-linejoin="round"/>
<path d="M60.1519 85.313L6.96753 99.5637M65.6621 55.9664L43.7063 61.8495M90.4942 99.5212L54.5 109.166" stroke="#EA5857" stroke-width="8" stroke-linecap="round" stroke-linejoin="round"/>
</svg>
