<svg width="1024" height="1024" fill="none" xmlns="http://www.w3.org/2000/svg"><style>.tassle{fill:#1c3557}.hat{fill:#eb5756}@media (prefers-color-scheme:dark){.tassle{fill:#fff}.hat{fill:#ce3e3d}}</style><path fill-rule="evenodd" clip-rule="evenodd" d="M125 506v246h51V523l-51-17Z" class="tassle"/><path d="M110 759c0-6 5-11 12-11h57c6 0 11 5 11 11v100c0 7-5 12-11 12h-57c-7 0-12-5-12-12V759Z" class="tassle"/><path d="M32 461c-21-9-21-31 0-41l455-216c15-7 35-7 50 0l455 216c21 10 21 32 0 41L537 677c-15 7-35 7-50 0L32 461Z" class="hat"/><path d="m537 727 270-128v119c0 19-13 36-35 47L537 876c-15 7-35 7-50 0L252 765c-22-11-35-28-35-47V599l270 128c15 7 35 7 50 0Z" class="hat"/><path d="m703 438-131 60a24 24 0 0 0 20 43l176-80c20-9 20-37 0-46l-176-80a24 24 0 0 0-20 44l131 59Zm-387 0 130 60a24 24 0 0 1-19 43l-176-80c-20-9-20-37 0-46l176-80a24 24 0 0 1 19 44l-130 59Z" fill="#fff"/></svg>