<svg width="354" height="434" viewBox="0 0 354 434" fill="none" xmlns="http://www.w3.org/2000/svg">
<path d="M104.464 184.501L127.171 189.79L201.651 195.79C224.298 188.874 259.944 180.35 260.182 176.308C260.42 172.266 261.312 159.845 260.182 154.911L316.548 117.977L207.707 27.2148L48.2907 148.244L104.464 184.501Z" fill="#254065" stroke="#1D3557" stroke-width="4"/>
<path d="M201.836 119.892C230.722 118.471 252.799 141.523 261.232 155.639C261.232 200.956 235.567 238.683 222.735 251.882C184.787 235.2 113.706 181.048 130.891 160.589C153.989 133.091 172.95 121.312 201.836 119.892Z" fill="#3E5A82" stroke="#1D3557" stroke-width="4"/>
<line x1="207.497" y1="120.144" x2="231.696" y2="171.84" stroke="#1D3557" stroke-opacity="0.5" stroke-width="4"/>
<path d="M111.044 258.814C110.007 294.08 95.7008 374.235 95.7008 374.235C101.924 420.058 193.338 428.82 235.219 431.37C277.028 433.92 327.036 382.838 332.686 374.758C338.337 366.642 322.091 322.342 318.586 307.762C315.081 293.182 323.915 274.831 323.915 274.831C323.915 274.831 340.868 251.847 348.414 230.444C355.961 209.041 343.765 199.309 345.374 196.687C346.984 194.066 345.16 187.027 343.479 185.195C341.297 185.519 340.582 182.753 340.582 182.753C340.582 182.753 348.7 181.137 337.756 166.414C323.093 158.98 311.863 168.82 297.95 171.621C284.038 174.422 279.746 184.549 276.777 182.897C273.845 181.281 267.908 180.24 267.908 180.24C265.977 175.499 249.99 165.228 249.99 165.228C222.632 158.653 241.216 176.745 225.628 172.774C188.826 163.4 159.599 187.812 159.348 184.329C159.098 180.809 149.934 176.198 149.934 176.198C145.07 184.314 137.875 180.132 137.875 180.132C137.875 180.132 86.5302 151.399 73.7622 158.653C60.9942 165.907 86.1722 165.408 90.0236 197.167C103.717 245.095 113.082 210.836 111.044 258.814Z" fill="white" stroke="#E63946" stroke-width="4" stroke-miterlimit="10"/>
<path d="M188.29 174.596C182.727 174.596 161.63 187.922 161.38 184.438C161.13 180.919 150.682 178.875 150.682 178.875C145.818 186.991 129.713 176.308 129.713 176.308C129.713 176.308 85.9943 152.364 73.2264 159.618C60.4584 166.872 88.6319 168.711 90.3436 198.132C104.893 246.06 114.261 209.758 111.722 259.352C115.978 290.99 96.3786 374.772 96.3786 374.772C102.637 420.595 194.016 429.358 235.861 431.908C277.67 434.457 328.211 383.376 333.862 375.295C339.513 367.179 322.805 322.88 319.3 308.3C315.795 293.719 324.557 275.368 324.557 275.368C324.557 275.368 341.474 252.385 349.056 230.982C356.603 209.578 344.407 199.846 346.016 197.225C347.626 194.603 345.802 187.564 344.121 185.733C341.939 186.056 341.224 183.291 341.224 183.291C341.224 183.291 349.342 181.675 338.398 166.951C323.735 159.517 312.505 169.357 298.592 172.158C284.68 174.959 280.388 185.086 277.419 183.434C274.487 181.818 268.55 180.777 268.55 180.777C266.619 176.037 250.632 165.766 250.632 165.766" stroke="#E63946" stroke-miterlimit="10"/>
<path d="M202.385 224.841C202.385 224.841 199.56 203.833 215.904 200.996C222.771 201.211 228.243 204.874 235.289 205.054C243.228 203.186 234.967 214.786 227.242 216.33C223.129 218.161 221.698 225.416 206.105 222.112C203.029 222.435 202.385 224.841 202.385 224.841Z" fill="#E63946"/>
<path d="M309.567 168.747C309.567 168.747 289.682 193.454 315.933 192.053L321.262 190.689C321.262 190.689 323.694 200.888 337.213 195.429C337.213 195.429 343.114 198.877 346.011 197.225C348.908 195.573 344.115 185.733 344.115 185.733L341.218 183.291C341.218 183.291 350.338 182.501 338.393 166.951C327.163 160.379 309.567 168.747 309.567 168.747Z" fill="#E63946"/>
<path d="M216.579 205.413C216.579 205.413 207.138 207.029 209.283 216.832C213.575 223.835 223.947 216.402 223.947 216.402C223.947 216.402 226.594 213.385 223.947 209.83C221.3 206.274 217.903 205.053 216.579 205.413Z" fill="white"/>
<path opacity="0.44" d="M96.3785 374.772C96.3785 374.772 98.0594 402.209 138.581 413.988C179.102 425.767 114.154 346.402 124.776 304.888C124.776 304.888 133.896 336.311 142.408 331.75C150.92 327.189 134.325 261.938 144.089 262.512C153.852 263.087 150.598 276.482 168.659 278.277C186.72 280.073 199.202 255.294 192.228 219.849C185.254 184.404 195.232 172.266 216.87 174.923C238.507 177.581 248.7 191.874 259.072 189.935C269.444 187.995 212.864 160.487 253.385 167.597C253.385 167.597 247.772 162.614 238.786 164.753C238.786 164.753 232.367 164.753 232.367 173.74C232.367 173.74 209.686 170.317 207.119 172.028C202.411 169.889 200.272 171.172 187.862 173.74C178.491 179.629 161.38 186.15 161.38 186.15C161.38 186.15 155.757 177.379 151.966 177.163C148.175 176.948 147.686 189.573 129.285 174.923C101.898 163.898 74.5101 148.92 71.5146 163.898C71.5146 163.898 81.7849 170.722 90.7715 197.704C90.7715 210.97 94.1949 209.258 102.326 224.236C114.308 232.367 112.258 245.49 112.258 245.49C112.258 245.49 103.353 368.559 96.3785 374.772Z" fill="#E63946"/>
<path d="M217.046 207.711C217.046 207.711 211.073 207.603 211.645 212.595C212.217 217.587 223.769 214.247 221.91 210.871C220.014 207.46 217.725 207.675 217.046 207.711Z" fill="#E63946"/>
<path d="M256.137 286.645C256.137 286.645 258.533 277.416 272.839 271.239C287.145 265.062 345.334 230.479 337.216 195.429C337.216 195.429 340.756 219.059 351.45 219.813C351.45 219.813 352.595 231.879 340.327 221.609C340.327 221.609 314.97 258.885 291.473 266.283C267.975 273.717 277.882 286.07 256.137 286.645Z" fill="#E63946"/>
<path opacity="0.16" d="M337.97 253.39C337.97 253.39 259.681 309.844 259.681 325.214C251.992 355.2 267.514 417.866 263.902 425.12C260.289 432.374 324.7 394.679 336.002 371.444C336.002 371.444 334.036 362.742 319.301 308.264C319.301 308.264 318.192 288.404 324.558 275.332C330.925 262.297 337.255 258.562 337.97 253.39Z" fill="#E63946"/>
<path d="M121.386 222.905C121.386 222.905 115.478 212.834 109.284 208.063C103.09 203.292 91.2867 181.651 85.8908 172.451C80.4949 163.251 109.086 196.655 119.063 211.934C119.063 211.934 115.764 212.646 121.386 222.905Z" fill="#E63946"/>
<path d="M111.792 259.352C110.755 294.617 96.4488 374.772 96.4488 374.772C102.672 420.596 194.086 429.358 235.967 431.908C277.776 434.457 327.784 383.376 333.434 375.295C339.085 367.179 322.839 322.88 319.334 308.3C315.829 293.719 324.663 275.369 324.663 275.369C324.663 275.369 341.616 252.385 349.162 230.982C356.708 209.578 344.513 199.846 346.122 197.225C347.731 194.603 345.907 187.565 344.227 185.733C342.045 186.056 341.33 183.291 341.33 183.291C341.33 183.291 349.448 181.675 338.504 166.951C323.841 159.517 312.611 169.357 298.698 172.158C284.786 174.959 280.494 185.087 277.525 183.435C274.593 181.819 268.656 180.777 268.656 180.777C266.724 176.037 250.738 165.766 250.738 165.766C223.38 159.19 241.964 177.283 226.376 173.312C189.574 163.938 160.347 188.35 160.096 184.866C159.846 181.347 150.682 176.736 150.682 176.736C145.818 184.852 138.623 180.669 138.623 180.669C138.623 180.669 87.2781 151.936 74.5101 159.19C61.7421 166.445 86.9201 165.946 90.7715 197.704C104.465 245.632 113.83 211.374 111.792 259.352Z" stroke="#E63946" stroke-width="4" stroke-miterlimit="10"/>
<g filter="url(#filter0_d_1046_4182)">
<path d="M124.215 86.9378C122.299 78.1953 130.589 78.6164 134.191 80.2944L127.776 85.1572L129.557 106.523L132.996 112.171C134.371 114.43 131.932 117.205 130.54 118.31L131.339 127.888C133.733 129.914 135.943 129.73 135.821 146.061C135.724 159.126 142.169 216.255 145.403 243.187C147.615 269.71 160.529 288.169 165.973 294.144C166.526 294.84 166.415 295.888 161.553 294.513C155.475 292.794 149.027 268.85 149.396 273.271C149.69 276.807 153.203 289.274 154.922 295.066C152.589 296.744 146.266 299.793 139.635 298.566C131.346 297.031 131.163 303.723 130.794 299.303C130.499 295.767 129.443 294.964 128.952 295.005C123.795 295.435 123.733 294.699 125.084 293.102C126.165 291.825 127.662 288.436 128.276 286.901C125.624 290.683 122.915 290.81 121.891 290.401C126.508 288.829 129.872 279.35 130.977 274.806C131.59 255.467 123.973 155.209 122.867 141.948C121.982 131.339 125.69 128.359 127.655 128.195L126.856 118.618C125.874 118.699 123.689 117.991 122.804 114.504C121.92 111.017 124.482 107.935 125.874 106.83L124.215 86.9378Z" fill="#FF9F1C"/>
</g>
<defs>
<filter id="filter0_d_1046_4182" x="121.891" y="79.3279" width="52.3085" height="229.51" filterUnits="userSpaceOnUse" color-interpolation-filters="sRGB">
<feFlood flood-opacity="0" result="BackgroundImageFix"/>
<feColorMatrix in="SourceAlpha" type="matrix" values="0 0 0 0 0 0 0 0 0 0 0 0 0 0 0 0 0 0 127 0" result="hardAlpha"/>
<feOffset dx="4" dy="4"/>
<feGaussianBlur stdDeviation="2"/>
<feColorMatrix type="matrix" values="0 0 0 0 0 0 0 0 0 0 0 0 0 0 0 0 0 0 0.25 0"/>
<feBlend mode="normal" in2="BackgroundImageFix" result="effect1_dropShadow_1046_4182"/>
<feBlend mode="normal" in="SourceGraphic" in2="effect1_dropShadow_1046_4182" result="shape"/>
</filter>
</defs>
</svg>
