<svg width="253" height="211" viewBox="0 0 253 211" fill="none" xmlns="http://www.w3.org/2000/svg">
<circle cx="129.501" cy="108.5" r="102.5" fill="white"/>
<circle cx="31" cy="46" r="9" fill="#97D0EF"/>
<circle cx="189.5" cy="33.5" r="9" stroke="#97D0EF" stroke-width="7"/>
<circle cx="28.5" cy="153.5" r="9" stroke="#FFE971" stroke-width="7"/>
<circle cx="248" cy="99" r="5" fill="#FFE971"/>
<circle cx="88" cy="177" r="5" fill="#FFE971"/>
<circle cx="207" cy="76" r="5" fill="#EB5756"/>
<path d="M161.625 205.893L158.748 201.346C157.232 198.95 154.029 198.293 151.692 199.898L149.953 201.093C147.616 202.698 144.413 202.041 142.897 199.645L141.769 197.862C140.253 195.466 137.05 194.809 134.713 196.414L130.278 199.46" stroke="#97D0EF" stroke-width="7" stroke-linecap="square" stroke-linejoin="round"/>
<path d="M32.4507 103.568L27.271 102.114C24.5412 101.348 21.721 103.003 21.0582 105.759L20.5649 107.811C19.9021 110.568 17.082 112.222 14.3521 111.456L12.3208 110.886C9.59092 110.119 6.77075 111.774 6.10793 114.531L4.85027 119.762" stroke="#97D0EF" stroke-width="7" stroke-linecap="square" stroke-linejoin="round"/>
<path d="M113.354 5.36256L116.338 9.83953C117.91 12.199 121.128 12.7803 123.426 11.1201L125.137 9.88478C127.435 8.22458 130.653 8.80589 132.225 11.1654L133.395 12.9211C134.967 15.2806 138.185 15.8619 140.483 14.2017L144.845 11.0516" stroke="#EB5756" stroke-width="7" stroke-linecap="square" stroke-linejoin="round"/>
<path d="M203.633 168.916C204.573 167.676 206.506 167.936 207.084 169.38L209.204 174.676C209.42 175.214 209.858 175.632 210.405 175.822L215.793 177.693C217.263 178.204 217.613 180.123 216.418 181.119L212.037 184.772C211.592 185.143 211.329 185.688 211.318 186.268L211.203 191.971C211.171 193.526 209.455 194.452 208.138 193.623L203.31 190.585C202.82 190.277 202.22 190.196 201.665 190.364L196.206 192.017C194.717 192.468 193.306 191.121 193.687 189.613L195.084 184.082C195.226 183.521 195.118 182.925 194.787 182.45L191.528 177.768C190.639 176.491 191.484 174.733 193.036 174.63L198.727 174.25C199.305 174.211 199.838 173.924 200.188 173.462L203.633 168.916Z" fill="#FFE971"/>
<path d="M83.8405 46.1207C83.0748 47.4747 81.1244 47.4747 80.3587 46.1207L78.383 42.6268C78.0978 42.1226 77.608 41.7668 77.0404 41.6514L73.107 40.852C71.5826 40.5422 70.9799 38.6872 72.0311 37.5406L74.7433 34.5819C75.1348 34.1549 75.3219 33.5791 75.2562 33.0036L74.801 29.0157C74.6246 27.4702 76.2025 26.3238 77.6178 26.9691L81.2699 28.6344C81.7969 28.8747 82.4023 28.8747 82.9294 28.6344L86.5814 26.9691C87.9967 26.3238 89.5747 27.4702 89.3983 29.0157L88.9431 33.0036C88.8774 33.5791 89.0644 34.1549 89.4559 34.5819L92.1682 37.5406C93.2193 38.6872 92.6166 40.5422 91.0922 40.852L87.1589 41.6514C86.5912 41.7668 86.1014 42.1226 85.8163 42.6268L83.8405 46.1207Z" fill="#EB5756"/>
<path d="M177 129C180.5 137 187 146.5 207 146.5" stroke="#FFC058" stroke-width="4"/>
<path d="M217.698 135.736C216.34 140.342 209.233 144.84 205.307 146.417C212.945 150.9 220.032 149.166 224.969 144.674C225.649 139.454 222.743 136.763 217.698 135.736Z" fill="#FFD465" stroke="#FFC058" stroke-width="4"/>
<path d="M205.278 146.089C212.959 151.06 220.036 149.222 224.939 144.347C225.072 143.155 225.05 142.083 224.885 141.122C221.5 145.5 217.765 145.951 205.278 146.089Z" fill="#FFC058"/>
<path d="M47.1883 85.9478C44.0331 83.4414 44.9187 79.6387 48.8567 78.7843L136.195 59.8353C139.13 59.1985 142.53 59.9904 144.882 61.8587L214.861 117.446C218.016 119.952 217.13 123.755 213.192 124.609L125.855 143.558C122.919 144.195 119.519 143.403 117.167 141.535L47.1883 85.9478Z" fill="#255698"/>
<path fill-rule="evenodd" clip-rule="evenodd" d="M139.454 59.6827C138.355 59.5613 137.247 59.6064 136.197 59.834L48.8594 78.783C44.9214 79.6374 44.0358 83.4401 47.1911 85.9465L117.17 141.534C118.27 142.408 119.599 143.046 121.003 143.413L136.725 67.8228C136.725 67.8228 139.243 68.4091 140.238 64.1358C140.861 61.458 140.106 60.2279 139.454 59.6827Z" fill="#3D79CA"/>
<path d="M47.6973 86.4727L133.822 67.8953C136.76 67.2618 140.159 68.0572 142.508 69.9276L211.842 125.139L125.717 143.716C122.78 144.349 119.38 143.554 117.031 141.684L47.6973 86.4727Z" fill="#10315E"/>
<path d="M134.751 85.6981C179.125 96.0326 174.716 114.964 174.716 114.964L168.727 140.679C168.727 140.68 164.514 158.766 120.14 148.431C75.7668 138.096 79.9783 120.011 79.9784 120.01L79.9784 120.01L85.9676 94.2946C85.9676 94.2946 90.3765 75.3635 134.751 85.6981Z" fill="#255698"/>
<path fill-rule="evenodd" clip-rule="evenodd" d="M169.873 135.757C152.163 135.603 135.443 120.86 130.54 99.6769C129.35 94.5344 128.952 89.4268 129.259 84.5269C90.0062 76.9535 85.9673 94.2954 85.9673 94.2954L79.9781 120.011L79.9781 120.011C79.978 120.012 75.7665 138.097 120.14 148.432C164.514 158.766 168.726 140.681 168.726 140.68L169.873 135.757Z" fill="#3669AE"/>
<path d="M128.226 113.718C172.6 124.053 169.128 138.962 169.128 138.962L168.74 140.668C168.737 140.682 168.736 140.684 168.733 140.699C168.617 141.161 163.938 158.64 120.149 148.441C76.3618 138.243 79.8837 120.498 79.9846 120.03C79.9878 120.015 79.9884 120.013 79.9917 119.999L80.38 118.293C80.38 118.293 83.8522 103.384 128.226 113.718Z" fill="#5B95E6"/>
<path d="M127.045 118.305C161.363 126.514 160.786 137.601 160.786 137.601L160.63 138.317C160.539 138.733 160.422 139.141 160.199 139.511C158.764 141.889 151.299 150.587 121.437 143.444C91.4271 136.266 88.5235 125.001 88.2674 122.286C88.2293 121.884 88.2911 121.488 88.3763 121.099L88.5417 120.343C88.5417 120.343 92.7278 110.097 127.045 118.305Z" fill="#214474"/>
<path fill-rule="evenodd" clip-rule="evenodd" d="M118.038 142.584C129.194 138.889 136.739 132.113 137.17 124.006C137.223 123.013 137.168 122.028 137.01 121.055C161.244 128.785 160.786 137.601 160.786 137.601L160.629 138.317C160.538 138.733 160.421 139.14 160.198 139.51C158.763 141.889 151.299 150.587 121.436 143.444C120.263 143.163 119.13 142.876 118.038 142.584Z" fill="#294E82"/>
<path d="M103.349 115.129C108.944 115.017 116.598 115.806 127.045 118.305C136.803 120.639 143.739 123.206 148.67 125.684C154.857 128.032 142.453 130.328 125.206 126.203C110.01 122.568 97.6239 114.904 103.349 115.129Z" fill="#1C3557"/>
</svg>
