<svg width="221" height="128" viewBox="0 0 221 128" fill="none" xmlns="http://www.w3.org/2000/svg">
<path d="M108 53.5C108 53.5 131.136 30.888 151 16.0001C171.625 0.541852 193 -2.5 200.5 8.50008C216.34 31.7318 154.613 74.2881 181 84.0001C190.712 87.5746 220 65 220 65" stroke="#E0BE0B" stroke-width="3"/>
<path d="M100.8 18.1491L3.10011 67.9824L117.192 85.6866L214.236 39.1315L100.8 18.1491Z" fill="#4F79E6"/>
<path d="M59.6681 65.004C96.9681 47.0421 118.795 44.574 159.679 53.9615L167.311 106.449L67.3001 117.492L59.6681 65.004Z" fill="#628BF3"/>
<path d="M67.6193 117.558C105.559 99.5254 127.742 97.018 169.259 106.336L168.031 106.062C130.021 118.928 108.056 121.65 67.6193 117.558Z" fill="#204F8F"/>
</svg>
