<svg width="154" height="154" viewBox="0 0 154 154" fill="none" xmlns="http://www.w3.org/2000/svg">
<path fill-rule="evenodd" clip-rule="evenodd" d="M114.972 20.1704C103.732 12.6602 90.518 8.65168 77 8.65168C58.8799 8.67458 41.5086 15.8829 28.6958 28.6957C15.8829 41.5086 8.67461 58.8799 8.65172 77C8.65172 90.518 12.6603 103.732 20.1705 114.972C27.6807 126.212 38.3552 134.972 50.8443 140.146C63.3333 145.319 77.0758 146.672 90.3341 144.035C103.592 141.398 115.771 134.888 125.33 125.33C134.888 115.771 141.398 103.592 144.035 90.3341C146.672 77.0758 145.319 63.3332 140.146 50.8442C134.972 38.3552 126.212 27.6807 114.972 20.1704ZM34.2211 12.9768C46.8837 4.51597 61.7709 0 77 0C97.4217 0 117.007 8.11248 131.447 22.5528C145.888 36.9931 154 56.5783 154 77C154 92.2291 149.484 107.116 141.023 119.779C132.562 132.441 120.537 142.311 106.467 148.139C92.3967 153.967 76.9146 155.491 61.9781 152.52C47.0415 149.549 33.3214 142.216 22.5528 131.447C11.7842 120.679 4.45063 106.958 1.47957 92.0219C-1.49149 77.0854 0.0333628 61.6033 5.86131 47.5334C11.6893 33.4635 21.5585 21.4377 34.2211 12.9768ZM59.991 53.0688C59.991 57.847 56.1175 61.7205 51.3393 61.7205C46.5611 61.7205 42.6876 57.847 42.6876 53.0688C42.6876 48.2906 46.5611 44.4171 51.3393 44.4171C56.1175 44.4171 59.991 48.2906 59.991 53.0688ZM102.66 61.7205C107.439 61.7205 111.312 57.847 111.312 53.0688C111.312 48.2906 107.439 44.4171 102.66 44.4171C97.8823 44.4171 94.0088 48.2906 94.0088 53.0688C94.0088 57.847 97.8823 61.7205 102.66 61.7205ZM91.6953 92.5584C87.2277 89.9768 82.1596 88.6158 76.9997 88.612C71.8398 88.6158 66.7717 89.9768 62.304 92.5584C57.8363 95.1399 54.1264 98.8513 51.5464 103.32C50.9818 104.313 50.8329 105.489 51.1322 106.591C51.4315 107.694 52.1547 108.633 53.144 109.204C54.1332 109.775 55.3083 109.932 56.4126 109.64C57.517 109.348 58.4611 108.631 59.0388 107.646C60.864 104.499 63.4839 101.887 66.6361 100.072C69.7882 98.2561 73.362 97.3005 76.9997 97.3005C80.6373 97.3005 84.2111 98.2561 87.3633 100.072C90.5154 101.887 93.1353 104.499 94.9606 107.646C95.5383 108.631 96.4823 109.348 97.5867 109.64C98.6911 109.932 99.8661 109.775 100.855 109.204C101.845 108.633 102.568 107.694 102.867 106.591C103.166 105.489 103.018 104.313 102.453 103.32C99.873 98.8513 96.163 95.1399 91.6953 92.5584Z" fill="#E0555B"/>
</svg>
