<svg width="192" height="192" viewBox="0 0 192 192" fill="none" xmlns="http://www.w3.org/2000/svg">
<path d="M96 10.7865C112.854 10.7865 129.329 15.7842 143.342 25.1476C157.355 34.511 168.277 47.8195 174.727 63.3902C181.177 78.9609 182.864 96.0945 179.576 112.624C176.288 129.154 168.172 144.338 156.255 156.255C144.338 168.172 129.154 176.288 112.624 179.576C96.0946 182.864 78.961 181.177 63.3902 174.727C47.8195 168.277 34.511 157.355 25.1476 143.342C15.7842 129.329 10.7866 112.854 10.7866 96C10.8151 73.4087 19.8021 51.7509 35.7765 35.7765C51.751 19.802 73.4088 10.8151 96 10.7865V10.7865ZM96 0C77.013 0 58.4524 5.6303 42.6653 16.1789C26.8782 26.7275 14.5736 41.7207 7.30761 59.2624C0.0415953 76.8041 -1.85952 96.1065 1.84466 114.729C5.54884 133.351 14.6919 150.456 28.1178 163.882C41.5436 177.308 58.6492 186.451 77.2714 190.155C95.8935 193.86 115.196 191.958 132.738 184.692C150.279 177.426 165.272 165.122 175.821 149.335C186.37 133.548 192 114.987 192 96C192 70.5392 181.886 46.1212 163.882 28.1177C145.879 10.1143 121.461 0 96 0V0Z" fill="white"/>
<path d="M64.0072 76.9505C69.9644 76.9505 74.7937 72.1212 74.7937 66.164C74.7937 60.2067 69.9644 55.3774 64.0072 55.3774C58.05 55.3774 53.2207 60.2067 53.2207 66.164C53.2207 72.1212 58.05 76.9505 64.0072 76.9505Z" fill="white"/>
<path d="M127.993 76.9505C133.95 76.9505 138.779 72.1212 138.779 66.164C138.779 60.2067 133.95 55.3774 127.993 55.3774C122.035 55.3774 117.206 60.2067 117.206 66.164C117.206 72.1212 122.035 76.9505 127.993 76.9505Z" fill="white"/>
<path d="M95.9998 110.476C102.433 110.48 108.752 112.177 114.322 115.396C119.892 118.614 124.517 123.241 127.734 128.813C128.438 130.051 128.623 131.517 128.25 132.891C127.877 134.266 126.975 135.437 125.742 136.149C124.509 136.861 123.044 137.056 121.667 136.692C120.29 136.328 119.113 135.435 118.393 134.206C116.117 130.283 112.851 127.027 108.921 124.763C104.991 122.499 100.535 121.308 95.9998 121.308C91.4645 121.308 87.0089 122.499 83.0789 124.763C79.149 127.027 75.8826 130.283 73.607 134.206C72.8867 135.435 71.7097 136.328 70.3328 136.692C68.956 137.056 67.491 136.861 66.2576 136.149C65.0242 135.437 64.1226 134.266 63.7495 132.891C63.3763 131.517 63.5619 130.051 64.2659 128.813C67.4824 123.241 72.1079 118.614 77.6779 115.396C83.248 112.177 89.5667 110.48 95.9998 110.476V110.476Z" fill="white"/>
</svg>
